<svg width="36" height="35" viewBox="0 0 36 35" fill="none" xmlns="http://www.w3.org/2000/svg">
<path d="M32.2473 0H3.75256C3.16768 0 2.69189 0.475781 2.69189 1.06066V2.1566C2.69189 2.55555 2.91352 2.90343 3.23986 3.08451V33.3914C3.23986 34.2784 3.96153 35 4.8485 35H31.1514C32.0384 35 32.76 34.2783 32.76 33.3914V3.08451C33.0864 2.90343 33.308 2.55555 33.308 2.1566V1.06066C33.3081 0.475781 32.8322 0 32.2473 0ZM31.7347 15.1372L28.7115 19.1682C24.7364 18.957 21.2814 16.9066 17.9381 14.9224C15.2391 13.3204 12.6897 11.8074 9.89068 11.1889C9.61431 11.1277 9.34053 11.3023 9.27941 11.5788C9.2183 11.8553 9.39289 12.129 9.6694 12.19C12.3078 12.7732 14.7884 14.2454 17.4147 15.8041C20.9436 17.8985 24.5926 20.0642 28.943 20.2044C28.9485 20.2046 28.9541 20.2046 28.9595 20.2046C29.1205 20.2046 29.2727 20.1289 29.3697 19.9996L31.7347 16.8462V33.3914C31.7346 33.7129 31.473 33.9746 31.1514 33.9746H4.8485C4.52687 33.9746 4.26525 33.7129 4.26525 33.3914V12.4447C5.36926 12.0799 6.45651 11.9122 7.57829 11.934C7.86205 11.9401 8.09543 11.7145 8.1009 11.4315C8.10644 11.1484 7.8814 10.9144 7.59832 10.9089C6.46704 10.8868 5.37083 11.0383 4.26525 11.3695V10.2498C9.14495 9.33591 13.0713 10.6438 17.2214 12.0271C20.7503 13.2035 24.3748 14.4119 28.8428 14.4117C29.768 14.4117 30.7304 14.359 31.7347 14.2443V15.1372ZM7.55314 8.91659V5.99245C7.55314 5.67089 7.81481 5.40921 8.13638 5.40921H15.8081C16.1297 5.40921 16.3913 5.67089 16.3913 5.99245V9.28033C16.3913 9.60196 16.1296 9.86357 15.8081 9.86357H13.7625C11.7723 9.31014 9.74706 8.91885 7.55314 8.91659ZM32.2826 2.1566C32.2826 2.17608 32.2668 2.19187 32.2473 2.19187H30.6032C30.3201 2.19187 30.0905 2.42143 30.0905 2.70457C30.0905 2.98771 30.3201 3.21727 30.6032 3.21727H31.7346V13.2118C26.0457 13.8865 21.7259 12.4478 17.5456 11.0544C17.2057 10.9411 16.8674 10.8285 16.5298 10.7173C17.0552 10.4524 17.4166 9.90794 17.4166 9.28033V5.99245C17.4166 5.10542 16.695 4.38382 15.808 4.38382H8.13631C7.24928 4.38382 6.52768 5.10549 6.52768 5.99245V8.94332C5.79534 8.98338 5.04236 9.06979 4.26519 9.2078V3.21727H28.4116C28.6948 3.21727 28.9243 2.98771 28.9243 2.70457C28.9243 2.42143 28.6948 2.19187 28.4116 2.19187H3.75256C3.73308 2.19187 3.71729 2.17608 3.71729 2.1566V1.06066H3.71722C3.71722 1.04118 3.73301 1.02539 3.75249 1.02539H32.2473C32.2668 1.02539 32.2826 1.04118 32.2826 1.06066V2.1566Z" fill="#394045"/>
<path d="M27.8636 4.38379H20.1919C19.3049 4.38379 18.5833 5.10546 18.5833 5.99242V9.2803C18.5833 10.1673 19.3049 10.8889 20.1919 10.8889H27.8636C28.7506 10.8889 29.4722 10.1673 29.4722 9.2803V5.99242C29.4722 5.10539 28.7505 4.38379 27.8636 4.38379ZM28.4469 9.2803C28.4469 9.60193 28.1852 9.86354 27.8637 9.86354H20.1919C19.8703 9.86354 19.6086 9.60193 19.6086 9.2803V5.99242C19.6086 5.67086 19.8703 5.40918 20.1919 5.40918H27.8636C28.1852 5.40918 28.4469 5.67086 28.4469 5.99242V9.2803Z" fill="#394045"/>
</svg>
