<svg width="36" height="30" viewBox="0 0 36 30" fill="none" xmlns="http://www.w3.org/2000/svg">
<path d="M4.0003 22.8749C4.32246 22.8749 4.58361 22.6137 4.58361 22.2915C4.58361 21.9694 4.32246 21.7082 4.0003 21.7082C3.67815 21.7082 3.41699 21.9694 3.41699 22.2915C3.41699 22.6137 3.67815 22.8749 4.0003 22.8749Z" fill="#394045"/>
<path d="M8.66681 22.8749C8.98896 22.8749 9.25012 22.6137 9.25012 22.2915C9.25012 21.9694 8.98896 21.7082 8.66681 21.7082C8.34465 21.7082 8.0835 21.9694 8.0835 22.2915C8.0835 22.6137 8.34465 22.8749 8.66681 22.8749Z" fill="#394045"/>
<path d="M13.3333 22.8749C13.6555 22.8749 13.9166 22.6137 13.9166 22.2915C13.9166 21.9694 13.6555 21.7082 13.3333 21.7082C13.0112 21.7082 12.75 21.9694 12.75 22.2915C12.75 22.6137 13.0112 22.8749 13.3333 22.8749Z" fill="#394045"/>
<path d="M6.33355 25.2081C6.65571 25.2081 6.91686 24.947 6.91686 24.6248C6.91686 24.3027 6.65571 24.0415 6.33355 24.0415C6.0114 24.0415 5.75024 24.3027 5.75024 24.6248C5.75024 24.947 6.0114 25.2081 6.33355 25.2081Z" fill="#394045"/>
<path d="M11.0001 25.2081C11.3222 25.2081 11.5834 24.947 11.5834 24.6248C11.5834 24.3027 11.3222 24.0415 11.0001 24.0415C10.6779 24.0415 10.4167 24.3027 10.4167 24.6248C10.4167 24.947 10.6779 25.2081 11.0001 25.2081Z" fill="#394045"/>
<path d="M4.0003 27.5414C4.32246 27.5414 4.58361 27.2802 4.58361 26.9581C4.58361 26.6359 4.32246 26.3748 4.0003 26.3748C3.67815 26.3748 3.41699 26.6359 3.41699 26.9581C3.41699 27.2802 3.67815 27.5414 4.0003 27.5414Z" fill="#394045"/>
<path d="M8.66681 27.5414C8.98896 27.5414 9.25012 27.2802 9.25012 26.9581C9.25012 26.6359 8.98896 26.3748 8.66681 26.3748C8.34465 26.3748 8.0835 26.6359 8.0835 26.9581C8.0835 27.2802 8.34465 27.5414 8.66681 27.5414Z" fill="#394045"/>
<path d="M13.3333 27.5414C13.6555 27.5414 13.9166 27.2802 13.9166 26.9581C13.9166 26.6359 13.6555 26.3748 13.3333 26.3748C13.0112 26.3748 12.75 26.6359 12.75 26.9581C12.75 27.2802 13.0112 27.5414 13.3333 27.5414Z" fill="#394045"/>
<path d="M18.0001 22.8749C18.3222 22.8749 18.5834 22.6137 18.5834 22.2915C18.5834 21.9694 18.3222 21.7082 18.0001 21.7082C17.6779 21.7082 17.4167 21.9694 17.4167 22.2915C17.4167 22.6137 17.6779 22.8749 18.0001 22.8749Z" fill="#394045"/>
<path d="M22.6666 22.8749C22.9887 22.8749 23.2499 22.6137 23.2499 22.2915C23.2499 21.9694 22.9887 21.7082 22.6666 21.7082C22.3444 21.7082 22.0833 21.9694 22.0833 22.2915C22.0833 22.6137 22.3444 22.8749 22.6666 22.8749Z" fill="#394045"/>
<path d="M15.6668 25.2081C15.989 25.2081 16.2501 24.947 16.2501 24.6248C16.2501 24.3027 15.989 24.0415 15.6668 24.0415C15.3447 24.0415 15.0835 24.3027 15.0835 24.6248C15.0835 24.947 15.3447 25.2081 15.6668 25.2081Z" fill="#394045"/>
<path d="M20.3333 25.2081C20.6555 25.2081 20.9166 24.947 20.9166 24.6248C20.9166 24.3027 20.6555 24.0415 20.3333 24.0415C20.0112 24.0415 19.75 24.3027 19.75 24.6248C19.75 24.947 20.0112 25.2081 20.3333 25.2081Z" fill="#394045"/>
<path d="M18.0001 27.5414C18.3222 27.5414 18.5834 27.2802 18.5834 26.9581C18.5834 26.6359 18.3222 26.3748 18.0001 26.3748C17.6779 26.3748 17.4167 26.6359 17.4167 26.9581C17.4167 27.2802 17.6779 27.5414 18.0001 27.5414Z" fill="#394045"/>
<path d="M22.6666 27.5414C22.9887 27.5414 23.2499 27.2802 23.2499 26.9581C23.2499 26.6359 22.9887 26.3748 22.6666 26.3748C22.3444 26.3748 22.0833 26.6359 22.0833 26.9581C22.0833 27.2802 22.3444 27.5414 22.6666 27.5414Z" fill="#394045"/>
<path d="M27.3331 22.8749C27.6552 22.8749 27.9164 22.6137 27.9164 22.2915C27.9164 21.9694 27.6552 21.7082 27.3331 21.7082C27.0109 21.7082 26.7498 21.9694 26.7498 22.2915C26.7498 22.6137 27.0109 22.8749 27.3331 22.8749Z" fill="#394045"/>
<path d="M31.9998 22.8749C32.322 22.8749 32.5831 22.6137 32.5831 22.2915C32.5831 21.9694 32.322 21.7082 31.9998 21.7082C31.6777 21.7082 31.4165 21.9694 31.4165 22.2915C31.4165 22.6137 31.6777 22.8749 31.9998 22.8749Z" fill="#394045"/>
<path d="M24.9998 25.2081C25.322 25.2081 25.5831 24.947 25.5831 24.6248C25.5831 24.3027 25.322 24.0415 24.9998 24.0415C24.6777 24.0415 24.4165 24.3027 24.4165 24.6248C24.4165 24.947 24.6777 25.2081 24.9998 25.2081Z" fill="#394045"/>
<path d="M29.6663 25.2081C29.9885 25.2081 30.2496 24.947 30.2496 24.6248C30.2496 24.3027 29.9885 24.0415 29.6663 24.0415C29.3442 24.0415 29.083 24.3027 29.083 24.6248C29.083 24.947 29.3442 25.2081 29.6663 25.2081Z" fill="#394045"/>
<path d="M27.3331 27.5414C27.6552 27.5414 27.9164 27.2802 27.9164 26.9581C27.9164 26.6359 27.6552 26.3748 27.3331 26.3748C27.0109 26.3748 26.7498 26.6359 26.7498 26.9581C26.7498 27.2802 27.0109 27.5414 27.3331 27.5414Z" fill="#394045"/>
<path d="M31.9998 27.5414C32.322 27.5414 32.5831 27.2802 32.5831 26.9581C32.5831 26.6359 32.322 26.3748 31.9998 26.3748C31.6777 26.3748 31.4165 26.6359 31.4165 26.9581C31.4165 27.2802 31.6777 27.5414 31.9998 27.5414Z" fill="#394045"/>
<path d="M33.2433 7.91612C33.3495 7.78406 33.5101 7.70763 33.6796 7.70845C34.2527 7.72807 34.7995 7.46722 35.1448 7.00935C35.4902 6.55149 35.5907 5.95411 35.4145 5.40841C35.1535 4.67766 34.4555 4.19485 33.6797 4.20852C33.5095 4.20927 33.3483 4.13216 33.2422 3.99914C32.0411 2.55248 29.2983 0.12529 24.4165 0.12529H11.5833C6.70149 0.12529 3.95876 2.55248 2.75648 4.00085C2.65025 4.13292 2.48961 4.20934 2.32015 4.20852C1.84336 4.18692 1.37859 4.36198 1.03454 4.69284C0.690498 5.02369 0.497318 5.48121 0.500189 5.95849C0.500189 6.1451 0.5289 6.33063 0.585363 6.50856C0.846286 7.23931 1.54436 7.72212 2.32015 7.70845C2.49023 7.7077 2.65128 7.7846 2.75764 7.91729C3.71302 9.0564 4.89971 9.97937 6.23891 10.6251H4.00019C2.58408 10.6265 1.30804 11.4802 0.766444 12.7886C0.224843 14.0971 0.524251 15.6029 1.52515 16.6047C1.55489 16.6344 1.58818 16.6601 1.61907 16.6887C1.42678 16.7825 1.25062 16.9062 1.09702 17.055C0.325329 17.825 0.299559 19.0671 1.03871 19.8684C0.695488 20.1963 0.50101 20.6501 0.500326 21.1249V28.1247C0.500326 29.0912 1.28385 29.8747 2.25029 29.8747H33.7497C34.7161 29.8747 35.4996 29.0912 35.4996 28.1247V21.1249C35.4983 20.4358 35.0927 19.8118 34.4637 19.5306L34.4794 19.5166C35.1496 18.8432 35.5173 17.9262 35.4979 16.9763C35.4786 16.0264 35.0738 15.1252 34.3767 14.4796C35.2213 14.0562 35.6634 13.1073 35.4444 12.1883C35.2254 11.2693 34.4027 10.6219 33.458 10.6249H29.7609C31.1004 9.9789 32.2874 9.05558 33.2433 7.91612ZM33.7496 20.5416C34.0718 20.5416 34.3329 20.8027 34.3329 21.1249V28.1247C34.3329 28.4469 34.0718 28.708 33.7496 28.708H2.25022C1.92805 28.708 1.66692 28.4468 1.66692 28.1247V21.1249C1.66692 20.8027 1.92812 20.5416 2.25022 20.5416H33.7496ZM33.4579 11.7918C33.9411 11.7918 34.3329 12.1835 34.3329 12.6667C34.3329 13.15 33.9411 13.5417 33.4579 13.5417H4.00019C3.67802 13.5417 3.41689 13.8029 3.41689 14.125C3.41689 14.4472 3.67808 14.7083 4.00019 14.7083H31.9996C33.2882 14.7083 34.3329 15.753 34.3329 17.0416C34.3329 18.3302 33.2882 19.3748 31.9996 19.3748H2.54184C2.05862 19.3748 1.66686 18.9831 1.66686 18.4999C1.66686 18.0166 2.05862 17.6249 2.54184 17.6249H31.9996C32.3217 17.6249 32.5829 17.3638 32.5829 17.0416C32.5829 16.7194 32.3217 16.4583 31.9996 16.4583H4.00012C2.7115 16.4583 1.66686 15.4136 1.66686 14.125C1.66686 12.8364 2.7115 11.7918 4.00012 11.7918H33.4579ZM24.4164 10.6251H11.5833C7.39861 10.6251 4.96205 8.74736 3.65662 7.17355C3.32809 6.77366 2.83776 6.54185 2.32022 6.54178C2.05322 6.5547 1.8059 6.40158 1.69837 6.15679C1.65688 6.02842 1.65688 5.89026 1.69837 5.76189C1.80528 5.51641 2.05274 5.36254 2.32022 5.37512C2.83735 5.37539 3.32741 5.14373 3.65546 4.74397C4.96212 3.169 7.39861 1.29189 11.5834 1.29189H24.4164C28.6011 1.29189 31.0377 3.169 32.3431 4.74281C32.6713 5.14318 33.1618 5.37532 33.6795 5.37512C33.9465 5.3622 34.1939 5.51532 34.3014 5.76011C34.3429 5.88849 34.3429 6.02664 34.3014 6.15502C34.1945 6.40049 33.947 6.55436 33.6795 6.54178C33.1625 6.54165 32.6726 6.77297 32.3443 7.17239C31.0377 8.74736 28.6011 10.6251 24.4164 10.6251Z" fill="#394045"/>
<path fill-rule="evenodd" clip-rule="evenodd" d="M11.5834 8.29181C8.53154 8.29181 6.71916 7.04818 5.73679 6.00517C5.51517 5.7746 5.14918 5.76551 4.91635 5.98473C4.68353 6.20396 4.67061 6.56981 4.88744 6.80489C6.02786 8.01531 8.11496 9.45841 11.5834 9.45841C11.9056 9.45841 12.1667 9.19722 12.1667 8.87511C12.1667 8.55301 11.9056 8.29181 11.5834 8.29181Z" fill="#394045"/>
<path fill-rule="evenodd" clip-rule="evenodd" d="M27.9162 4.79189H8.0833C7.76113 4.79189 7.5 5.05301 7.5 5.37518C7.5 5.69736 7.7612 5.95848 8.0833 5.95848H27.9162C28.2384 5.95848 28.4995 5.69729 28.4995 5.37518C28.4996 5.05301 28.2384 4.79189 27.9162 4.79189Z" fill="#394045"/>
</svg>
