<svg width="36" height="27" viewBox="0 0 36 27" fill="none" xmlns="http://www.w3.org/2000/svg">
<path d="M35.391 14.4123L33.6561 5.912C32.9567 2.68992 30.1113 0.387251 26.8142 0.375H9.76921C6.47233 0.387025 3.62713 2.68953 2.92787 5.91142L0.675038 16.4523C0.674166 16.4662 0.674166 16.4803 0.675038 16.4943C0.154962 19.0204 0.819354 21.6457 2.47848 23.6203C4.1376 25.5949 6.60905 26.7019 9.18704 26.625H32.2917C33.1971 26.625 34.0604 26.2425 34.6686 25.5718C35.2768 24.901 35.5733 24.0045 35.4849 23.1034C35.3277 21.7488 34.3432 20.6356 33.018 20.3139C34.9051 18.9951 35.8356 16.6864 35.3904 14.4275C35.3898 14.4223 35.3915 14.4176 35.391 14.4123ZM4.06887 6.15467C4.65154 3.47016 7.02221 1.55169 9.76921 1.54167H26.8142C29.5597 1.55126 31.9296 3.46743 32.514 6.15L33.5447 11.1964C32.48 10.2388 31.0987 9.70878 29.6667 9.70833H8.95837C6.64085 9.70107 4.42369 10.6534 2.83337 12.3392C2.79254 12.3818 2.7587 12.4284 2.7167 12.4716L4.06887 6.15467ZM29.6667 20.2083H8.95837C8.38138 20.2075 7.83159 19.963 7.44461 19.535C7.05763 19.1071 6.8695 18.5355 6.92662 17.9613C7.07246 16.8924 7.99646 16.1027 9.07504 16.125H29.6667C29.9889 16.125 30.25 15.8638 30.25 15.5417C30.25 15.2195 29.9889 14.9583 29.6667 14.9583H9.07504C7.3977 14.9406 5.97383 16.1838 5.7652 17.8482C5.67634 18.7499 5.97248 19.6472 6.58061 20.3189C7.18874 20.9905 8.05229 21.3741 8.95837 21.375H32.1791C33.2579 21.3528 34.1811 22.1447 34.3235 23.2143C34.3825 23.7895 34.193 24.3626 33.8025 24.7893C33.4153 25.2146 32.8669 25.4574 32.2917 25.4583H9.18704C5.23721 25.5239 1.93165 22.4769 1.67604 18.5348C1.5774 16.5401 2.30033 14.5922 3.67635 13.1449C5.05237 11.6975 6.96132 10.8772 8.95837 10.875H29.6667C32.244 10.875 34.3334 12.9643 34.3334 15.5417C34.3334 18.119 32.244 20.2083 29.6667 20.2083Z" fill="#394045"/>
<path d="M5.65901 7.08921C5.69907 7.0978 5.73994 7.1021 5.78092 7.10204C6.05608 7.10173 6.29361 6.90918 6.35084 6.64004C6.70059 5.03061 8.12219 3.88072 9.76917 3.87504H14.5C14.8222 3.87504 15.0833 3.61387 15.0833 3.29171C15.0833 2.96954 14.8222 2.70837 14.5 2.70837H9.76917C7.57208 2.71628 5.67581 4.25038 5.20926 6.39737C5.17711 6.54876 5.20644 6.70672 5.2908 6.83647C5.37515 6.96623 5.5076 7.05714 5.65901 7.08921Z" fill="#394045"/>
<path d="M16.8333 3.87504C17.1555 3.87504 17.4167 3.61387 17.4167 3.29171C17.4167 2.96954 17.1555 2.70837 16.8333 2.70837C16.5112 2.70837 16.25 2.96954 16.25 3.29171C16.25 3.61387 16.5112 3.87504 16.8333 3.87504Z" fill="#394045"/>
</svg>
