<svg width="36" height="36" viewBox="0 0 36 36" fill="none" xmlns="http://www.w3.org/2000/svg">
<path d="M32.7656 25.6563H31.9145C32.1029 25.3332 32.2188 24.9627 32.2188 24.5625C32.2188 23.9099 31.9314 23.323 31.4764 22.9219C31.9314 22.5208 32.2188 21.9339 32.2188 21.2813C32.2188 20.6249 31.9222 20.0419 31.4629 19.6407C31.9222 19.2394 32.2188 18.6564 32.2188 18C32.2188 17.3474 31.9314 16.7605 31.4764 16.3594C31.9314 15.9583 32.2188 15.3714 32.2188 14.7188C32.2188 13.5126 31.2377 12.5313 30.0312 12.5313H21.7926C21.8896 12.4519 21.9846 12.3684 22.0754 12.2776C23.5894 10.7641 23.4703 8.27697 23.4644 8.17175C23.4495 7.8935 23.2273 7.67136 22.9485 7.65583C22.8751 7.65168 21.5911 7.59305 20.3108 8.10564C19.8283 6.34213 18.4318 5.07425 18.3647 5.01437C18.1564 4.82854 17.8434 4.82854 17.6351 5.01437C17.568 5.07425 16.1715 6.34224 15.689 8.10586C14.4085 7.59365 13.124 7.65261 13.0513 7.65583C12.7725 7.67131 12.5504 7.8935 12.5354 8.17175C12.5296 8.27697 12.4104 10.7641 13.9245 12.2776C14.0153 12.3684 14.1102 12.4519 14.2074 12.5313H7.60938C5.49877 12.5313 3.78125 14.2485 3.78125 16.3594C3.78125 17.7528 4.53205 18.971 5.64784 19.6407C4.53205 20.3103 3.78125 21.5285 3.78125 22.9219C3.78125 23.9926 4.22444 24.9608 4.93543 25.6563H3.23438C2.63145 25.6563 2.14062 26.1468 2.14062 26.75V27.8438C2.14062 28.447 2.63145 28.9375 3.23438 28.9375H4.32812V30.5782C4.32812 30.8801 4.57274 31.125 4.875 31.125H7.0625C7.36476 31.125 7.60938 30.8801 7.60938 30.5782V28.9375H28.3906V30.5782C28.3906 30.8801 28.6352 31.125 28.9375 31.125H31.125C31.4273 31.125 31.6719 30.8801 31.6719 30.5782V28.9375H32.7656C33.3686 28.9375 33.8594 28.447 33.8594 27.8438V26.75C33.8594 26.1468 33.3686 25.6563 32.7656 25.6563ZM21.3021 11.5043C20.6077 12.1987 19.5863 12.4451 18.8694 12.5313H18.5604C18.612 11.8275 18.8199 10.6145 19.6161 9.81829C20.4182 9.0164 21.6589 8.81078 22.3595 8.76112C22.3099 9.46205 22.1042 10.7021 21.3021 11.5043ZM18.0011 6.207C18.4301 6.68972 19.1033 7.59316 19.3118 8.65169C19.1489 8.76976 18.9903 8.89751 18.8428 9.045C18.4722 9.41573 18.2005 9.84497 18.0001 10.2831C17.7996 9.84497 17.5279 9.41573 17.1573 9.045C17.0098 8.89757 16.8512 8.76987 16.6884 8.6518C16.8972 7.59781 17.5719 6.69147 18.0011 6.207H18.0011ZM14.698 11.5043C13.8958 10.7021 13.6902 9.46205 13.6405 8.76112C14.3412 8.81078 15.5818 9.0164 16.384 9.81829C17.1755 10.6098 17.3849 11.8254 17.438 12.5313H17.1299C16.4132 12.4449 15.3922 12.1985 14.698 11.5043ZM4.875 16.3594C4.875 14.8518 6.10175 13.625 7.60938 13.625H30.0312C30.6342 13.625 31.125 14.1156 31.125 14.7188C31.125 15.322 30.6342 15.8125 30.0312 15.8125H10.3438C10.0415 15.8125 9.79688 16.0574 9.79688 16.3594C9.79688 16.6614 10.0415 16.9063 10.3438 16.9063H30.0312C30.6342 16.9063 31.125 17.3968 31.125 18C31.125 18.6032 30.6342 19.0938 30.0312 19.0938H7.60938C6.10175 19.0938 4.875 17.867 4.875 16.3594ZM4.875 22.9219C4.875 21.4143 6.10175 20.1875 7.60938 20.1875H30.0312C30.6342 20.1875 31.125 20.6781 31.125 21.2813C31.125 21.8845 30.6342 22.375 30.0312 22.375H10.3438C10.0415 22.375 9.79688 22.6199 9.79688 22.9219C9.79688 23.2239 10.0415 23.4688 10.3438 23.4688H30.0312C30.6342 23.4688 31.125 23.9593 31.125 24.5625C31.125 25.1657 30.6342 25.6563 30.0312 25.6563H7.60938C6.10175 25.6563 4.875 24.4295 4.875 22.9219ZM6.51562 30.0313H5.42188V28.9375H6.51562V30.0313ZM30.5781 30.0313H29.4844V28.9375H30.5781V30.0313ZM3.23438 27.8438V26.75H32.7656L32.7662 27.8438H3.23438Z" fill="#394045"/>
</svg>
