<svg width="34" height="29" viewBox="0 0 34 29" fill="none" xmlns="http://www.w3.org/2000/svg">
<path d="M29.5781 3.5625H27.9375V2.46875C27.9369 1.88878 27.7062 1.33274 27.2961 0.922637C26.886 0.512535 26.33 0.281868 25.75 0.28125H6.0625C4.61261 0.282909 3.22257 0.859612 2.19734 1.88484C1.17211 2.91007 0.595409 4.30011 0.59375 5.75V23.25C0.595454 24.6999 1.17217 26.0899 2.19739 27.1151C3.22261 28.1403 4.61262 28.717 6.0625 28.7188H29.5781C30.593 28.7175 31.566 28.3138 32.2837 27.5962C33.0013 26.8785 33.405 25.9055 33.4062 24.8906V7.39062C33.4051 6.37571 33.0014 5.4027 32.2837 4.68504C31.5661 3.96738 30.593 3.56368 29.5781 3.5625ZM26.8438 2.46875V18.0854C26.5128 17.8884 26.1352 17.7834 25.75 17.7812H23.5625V1.375H25.75C26.04 1.37533 26.318 1.49067 26.523 1.69572C26.7281 1.90076 26.8434 2.17877 26.8438 2.46875ZM19.1875 17.7812V1.375H22.4688V17.7812H19.1875ZM1.6875 5.75C1.68883 4.59009 2.15019 3.47806 2.97037 2.65787C3.79056 1.83769 4.90259 1.37633 6.0625 1.375H18.0938V17.7812H6.0625C5.21217 17.7821 4.37378 17.9815 3.6142 18.3638C2.85462 18.746 2.19485 19.3004 1.6875 19.9828V5.75ZM29.5781 27.625H6.0625C4.90218 27.625 3.78938 27.1641 2.96891 26.3436C2.14844 25.5231 1.6875 24.4103 1.6875 23.25C1.6875 22.0897 2.14844 20.9769 2.96891 20.1564C3.78938 19.3359 4.90218 18.875 6.0625 18.875H25.75C26.0401 18.875 26.3183 18.9902 26.5234 19.1954C26.7285 19.4005 26.8438 19.6787 26.8438 19.9688C26.8438 20.2588 26.7285 20.537 26.5234 20.7421C26.3183 20.9473 26.0401 21.0625 25.75 21.0625H6.0625C5.48234 21.0625 4.92594 21.293 4.5157 21.7032C4.10547 22.1134 3.875 22.6698 3.875 23.25C3.875 23.8302 4.10547 24.3866 4.5157 24.7968C4.92594 25.207 5.48234 25.4375 6.0625 25.4375H29.5781C29.7232 25.4375 29.8623 25.3799 29.9648 25.2773C30.0674 25.1748 30.125 25.0357 30.125 24.8906C30.125 24.7456 30.0674 24.6065 29.9648 24.5039C29.8623 24.4014 29.7232 24.3438 29.5781 24.3438H6.0625C5.77242 24.3438 5.49422 24.2285 5.2891 24.0234C5.08398 23.8183 4.96875 23.5401 4.96875 23.25C4.96875 22.9599 5.08398 22.6817 5.2891 22.4766C5.49422 22.2715 5.77242 22.1562 6.0625 22.1562H29.5781C30.3033 22.1562 30.9988 22.4443 31.5116 22.9571C32.0244 23.4699 32.3125 24.1654 32.3125 24.8906C32.3125 25.6158 32.0244 26.3113 31.5116 26.8241C30.9988 27.3369 30.3033 27.625 29.5781 27.625ZM29.5781 21.0625H27.6438C27.8367 20.7303 27.938 20.3529 27.9375 19.9688V4.65625H29.5781C30.3031 4.6571 30.9981 4.94546 31.5107 5.45807C32.0233 5.97068 32.3116 6.66568 32.3125 7.39062V22.2168C31.957 21.8515 31.5318 21.5611 31.0622 21.3628C30.5925 21.1646 30.0879 21.0624 29.5781 21.0625Z" fill="#394045"/>
</svg>
