<svg width="36" height="35" viewBox="0 0 36 35" fill="none" xmlns="http://www.w3.org/2000/svg">
<path d="M33.412 27.5417L33.3449 27.4747C33.2593 27.388 33.2185 27.2666 33.2338 27.1459C33.642 23.6719 33.642 20.1617 33.2338 16.6877C33.2185 16.5666 33.2595 16.4454 33.3452 16.3587C34.5736 15.1597 34.7392 13.2427 33.7342 11.851C33.1436 11.0592 32.2377 10.5634 31.2526 10.4923C30.2673 10.4208 29.2996 10.7813 28.6012 11.4797L28.4672 11.6135C28.3868 11.6938 28.2754 11.7351 28.1618 11.7273C21.396 11.2721 14.6071 11.2721 7.84079 11.7273C7.72818 11.7349 7.61758 11.6938 7.53771 11.6135L7.4707 11.5495C6.20169 10.2485 4.1426 10.152 2.75745 11.328C2.04598 11.9465 1.62549 12.8346 1.59803 13.7768C1.56931 14.7168 1.92883 15.6268 2.59268 16.2927L2.6597 16.3597C2.74561 16.4466 2.78642 16.5676 2.77105 16.6887C2.36292 20.1627 2.36292 23.6727 2.77105 27.1469C2.78642 27.2679 2.74536 27.389 2.65945 27.4757C1.3592 28.7447 1.2627 30.8038 2.439 32.1889C3.05751 32.9004 3.94559 33.3207 4.88758 33.3481C4.92411 33.3481 4.96014 33.3499 4.99642 33.3499C5.89911 33.3489 6.76452 32.9909 7.40368 32.3535L7.53671 32.2204C7.61682 32.1398 7.72868 32.0985 7.84205 32.1068C14.6081 32.5621 21.3973 32.5621 28.1631 32.1068C28.2767 32.0993 28.3876 32.1406 28.4684 32.2204L28.5347 32.2867C29.804 33.5877 31.8628 33.6842 33.2479 32.5079C33.9597 31.8894 34.3799 31.0013 34.4074 30.0588C34.4366 29.1186 34.0766 28.2078 33.412 27.5417ZM32.3976 31.5389C31.5229 32.2678 30.2335 32.1965 29.4452 31.3749L29.3787 31.3084C29.0353 30.9655 28.5601 30.7874 28.0759 30.8204C21.3676 31.2719 14.6366 31.2719 7.92847 30.8204C7.44424 30.7874 6.96909 30.9655 6.6257 31.3084L6.49268 31.4414C6.07899 31.8554 5.51214 32.0791 4.92688 32.0595C4.34189 32.0398 3.7914 31.7785 3.40619 31.3382C2.67708 30.4632 2.74863 29.1738 3.56995 28.3854C3.93551 28.0206 4.11237 27.5082 4.04989 26.9958C3.65334 23.6216 3.65334 20.2126 4.04989 16.8384C4.11287 16.3262 3.93576 15.8133 3.56995 15.4487L3.50293 15.3819C3.08925 14.968 2.86578 14.4011 2.88543 13.8162C2.90509 13.2314 3.16634 12.6804 3.60673 12.2952C3.98313 11.9672 4.46659 11.7878 4.96593 11.7911C5.56454 11.7941 6.1377 12.0342 6.55944 12.4597L6.6257 12.5257C6.96959 12.8689 7.44424 13.0465 7.92847 13.014C14.6371 12.5625 21.3681 12.5625 28.0764 13.014C28.5606 13.0475 29.0358 12.8694 29.3787 12.5257L29.5117 12.393C29.9466 11.9581 30.5492 11.7344 31.1627 11.7795C31.7759 11.8246 32.3389 12.1345 32.7055 12.6283C33.3253 13.5063 33.2104 14.7055 32.4344 15.4492C32.0689 15.8135 31.8918 16.3265 31.9547 16.8386C32.3508 20.2131 32.3508 23.6218 31.9547 26.9963C31.892 27.5085 32.0691 28.0209 32.4344 28.3857L32.5014 28.4527C32.9154 28.8664 33.1389 29.4335 33.1195 30.0183C33.0995 30.6033 32.8383 31.154 32.3976 31.5392V31.5389Z" fill="#394045"/>
<path d="M6.91893 15.9284C6.57403 16.0155 6.36517 16.3657 6.45209 16.7104C7.32455 20.1269 7.32455 23.7077 6.45209 27.1242C6.39238 27.3484 6.45813 27.5873 6.62391 27.7495C6.78968 27.912 7.02978 27.9727 7.25275 27.9082C7.47571 27.8443 7.64703 27.6649 7.70094 27.4391C8.62631 23.8158 8.62631 20.0183 7.70094 16.395C7.61377 16.0501 7.26358 15.8412 6.91893 15.9284Z" fill="#394045"/>
<path d="M16.5408 6.04667C16.6091 6.29911 16.8235 6.48529 17.083 6.51754L21.249 7.03628C21.2757 7.03955 21.3024 7.04132 21.3294 7.04132C21.6697 7.04132 21.9514 6.77653 21.9726 6.43641C21.9932 6.0968 21.7461 5.79952 21.4085 5.75795L18.8072 5.43395L21.6216 3.28745C21.8287 3.12923 21.9202 2.86192 21.8536 2.60999C21.7866 2.35805 21.5745 2.17136 21.3163 2.13685L17.4961 1.62592C17.1434 1.57855 16.8197 1.82646 16.7726 2.17892C16.7252 2.53138 16.9729 2.85537 17.3253 2.90249L19.6021 3.20708L16.7718 5.36719C16.564 5.52566 16.4728 5.79422 16.5408 6.04667Z" fill="#394045"/>
<path d="M23.4318 8.78018C23.5 9.03287 23.7142 9.21905 23.9739 9.25105L27.5897 9.70202C27.6164 9.70504 27.6434 9.7068 27.6701 9.7068C28.0107 9.70705 28.2924 9.44202 28.3133 9.1024C28.3342 8.76279 28.0871 8.46525 27.7492 8.42368L25.6977 8.16847L27.9749 6.4296C28.182 6.27163 28.274 6.00408 28.207 5.75239C28.1402 5.50045 27.9281 5.31352 27.6696 5.279L24.3531 4.83534C24.0006 4.78823 23.6766 5.03588 23.6295 5.38834C23.5824 5.74105 23.8298 6.06505 24.1828 6.11191L25.9552 6.34948L23.6628 8.10095C23.4549 8.25942 23.3635 8.52799 23.4318 8.78018Z" fill="#394045"/>
</svg>
