<svg width="36" height="32" viewBox="0 0 36 32" fill="none" xmlns="http://www.w3.org/2000/svg">
<path d="M7.41406 25.1016C7.13092 25.1016 6.90137 25.3311 6.90137 25.6143V28.3296C6.90137 28.6128 7.13092 28.8423 7.41406 28.8423C7.69721 28.8423 7.92676 28.6128 7.92676 28.3296V25.6143C7.92676 25.3311 7.69721 25.1016 7.41406 25.1016Z" fill="#394045"/>
<path d="M14.5767 25.1016C14.2935 25.1016 14.064 25.3311 14.064 25.6143V28.3296C14.064 28.6128 14.2935 28.8423 14.5767 28.8423C14.8598 28.8423 15.0894 28.6128 15.0894 28.3296V25.6143C15.0894 25.3311 14.8598 25.1016 14.5767 25.1016Z" fill="#394045"/>
<path d="M10.9954 25.1016C10.7122 25.1016 10.4827 25.3311 10.4827 25.6143V28.3296C10.4827 28.6128 10.7122 28.8423 10.9954 28.8423C11.2785 28.8423 11.5081 28.6128 11.5081 28.3296V25.6143C11.508 25.3311 11.2785 25.1016 10.9954 25.1016Z" fill="#394045"/>
<path d="M18.158 25.1016C17.8748 25.1016 17.6453 25.3311 17.6453 25.6143V28.3296C17.6453 28.6128 17.8748 28.8423 18.158 28.8423C18.4411 28.8423 18.6707 28.6128 18.6707 28.3296V25.6143C18.6707 25.3311 18.4412 25.1016 18.158 25.1016Z" fill="#394045"/>
<path d="M21.7393 25.1016C21.456 25.1016 21.2266 25.3311 21.2266 25.6143V28.3296C21.2266 28.6128 21.456 28.8423 21.7393 28.8423C22.0224 28.8423 22.252 28.6128 22.252 28.3296V25.6143C22.252 25.3311 22.0225 25.1016 21.7393 25.1016Z" fill="#394045"/>
<path d="M25.3206 25.1016C25.0374 25.1016 24.8079 25.3311 24.8079 25.6143V28.3296C24.8079 28.6128 25.0373 28.8423 25.3206 28.8423C25.6038 28.8423 25.8333 28.6128 25.8333 28.3296V25.6143C25.8333 25.3311 25.6037 25.1016 25.3206 25.1016Z" fill="#394045"/>
<path d="M28.9019 25.1016C28.6187 25.1016 28.3892 25.3311 28.3892 25.6143V28.3296C28.3892 28.6128 28.6186 28.8423 28.9019 28.8423C29.1851 28.8423 29.4146 28.6128 29.4146 28.3296V25.6143C29.4146 25.3311 29.1851 25.1016 28.9019 25.1016Z" fill="#394045"/>
<path d="M32.4832 25.1016C32.1999 25.1016 31.9705 25.3311 31.9705 25.6143V27.7252C31.9705 28.0083 32.1999 28.2379 32.4832 28.2379C32.7663 28.2379 32.9958 28.0083 32.9958 27.7252V25.6143C32.9958 25.3311 32.7663 25.1016 32.4832 25.1016Z" fill="#394045"/>
<path d="M3.83276 25.1016C3.54962 25.1016 3.32007 25.3311 3.32007 25.6143V27.7252C3.32007 28.0083 3.54962 28.2379 3.83276 28.2379C4.11591 28.2379 4.34546 28.0083 4.34546 27.7252V25.6143C4.34546 25.3311 4.11591 25.1016 3.83276 25.1016Z" fill="#394045"/>
<path d="M35.4984 20.054C35.4976 19.8106 35.4727 19.5654 35.4207 19.3218L35.269 18.6111C35.5117 17.977 35.5647 17.2921 35.4206 16.6194L34.6114 12.8317C34.8444 12.207 34.901 11.5172 34.7548 10.8336L33.2051 3.5822C32.8594 1.96488 31.4081 0.791016 29.7542 0.791016H6.24583C5.0302 0.791016 3.87889 1.43394 3.24117 2.4689C3.09262 2.70993 3.16761 3.02575 3.40871 3.1743C3.64968 3.32277 3.96564 3.24778 4.11418 3.00675C4.56665 2.2725 5.38348 1.81634 6.2459 1.81634H29.7543C30.9276 1.81634 31.9572 2.64909 32.2025 3.79637V3.7965L33.7357 10.9712C33.8043 11.2925 33.7252 11.6232 33.5186 11.8787C33.312 12.1342 33.005 12.2807 32.6764 12.2807H30.0399C28.9099 12.2807 27.9905 13.2 27.9905 14.33V16.1084C27.9905 16.7054 27.505 17.1911 26.908 17.1915H4.03037C3.2709 17.1915 2.5614 16.8527 2.0837 16.2621C1.60615 15.6717 1.42335 14.9074 1.58208 14.165L3.58289 4.79927C3.64202 4.52234 3.46552 4.24993 3.18867 4.1908C2.91174 4.1316 2.63933 4.30817 2.5802 4.58503L0.579388 13.9507C0.435833 14.6219 0.491409 15.3056 0.726634 15.9294L0.579388 16.6192C0.435286 17.2922 0.488265 17.9772 0.730941 18.6111L0.57932 19.3217C0.52723 19.5652 0.502347 19.8104 0.501595 20.0539C0.501253 20.0576 0.500296 20.0613 0.500296 20.0651V27.6864C0.500296 29.6287 2.08384 31.2089 4.03031 31.2089H31.9696C33.9161 31.2089 35.4996 29.6287 35.4996 27.6864V20.0651C35.4997 20.0613 35.4988 20.0578 35.4984 20.054ZM29.0159 14.3301C29.0159 13.7654 29.4753 13.306 30.0399 13.306H32.6764C32.8534 13.306 33.027 13.2834 33.1943 13.2413C33.091 13.3613 32.9765 13.4738 32.8493 13.5754L29.0227 16.633C28.9923 16.6573 28.9613 16.6807 28.9299 16.7035C28.9855 16.5146 29.0159 16.3151 29.0159 16.1084V14.3301ZM4.03037 18.2168H26.9074H26.9087H27.4293C28.2376 18.2168 29.0307 17.9389 29.6626 17.4341L33.4892 14.3765C33.6095 14.2804 33.722 14.1776 33.8272 14.0693L34.4178 16.834C34.5287 17.3516 34.4759 17.8785 34.265 18.3582C33.8651 19.2706 32.964 19.8602 31.9696 19.8602H29.9486C29.6679 19.8602 29.4231 20.0765 29.4146 20.3571C29.4059 20.6474 29.6386 20.8856 29.927 20.8856H31.9695C32.9222 20.8856 33.8137 20.5016 34.464 19.8522C34.522 20.5379 34.2969 21.2187 33.8235 21.7416C33.3412 22.2742 32.6449 22.5625 31.9263 22.5625H4.0733C3.35464 22.5625 2.65833 22.2741 2.17613 21.7412C1.70294 21.2184 1.47797 20.5378 1.53587 19.8521C2.18631 20.5016 3.07779 20.8856 4.03037 20.8856H27.4663C27.7494 20.8856 27.979 20.656 27.979 20.3729C27.979 20.0898 27.7494 19.8602 27.4663 19.8602H4.03037C3.03595 19.8602 2.13491 19.2707 1.73466 18.3578C1.57101 17.9854 1.50388 17.5844 1.53355 17.1811C2.19274 17.843 3.0838 18.2168 4.03037 18.2168ZM31.9697 30.1836H4.03037C2.64931 30.1836 1.52576 29.0634 1.52576 27.6865V22.5441C2.1857 23.2109 3.07997 23.5878 4.03037 23.5878H31.9697C32.9201 23.5878 33.8144 23.2108 34.4743 22.5441V27.6865C34.4743 29.0634 33.3507 30.1836 31.9697 30.1836Z" fill="#394045"/>
</svg>
