<svg width="25" height="25" viewBox="0 0 25 25" fill="none" xmlns="http://www.w3.org/2000/svg">
<g clip-path="url(#clip0_3_881)">
<path d="M12.2272 21.9283C12.2272 20.6118 11.1601 19.5446 9.84382 19.5446C8.52735 19.5446 7.46021 20.6118 7.46021 21.928C7.46021 23.2445 8.52735 24.3116 9.84382 24.3116C11.1594 24.3102 12.2258 23.244 12.2272 21.9283ZM8.30562 21.9283C8.30562 21.0786 8.99417 20.3901 9.84382 20.3901C10.6932 20.3901 11.3818 21.0786 11.3818 21.928C11.3818 22.7777 10.6932 23.4662 9.84382 23.4662C8.99464 23.4653 8.30656 22.7772 8.30562 21.9283Z" fill="#CFCFCF"/>
<path d="M18.6695 24.3116C19.986 24.3119 21.0531 23.2447 21.0531 21.9283C21.0534 20.6118 19.9862 19.5446 18.6697 19.5446C17.3533 19.5446 16.2861 20.6118 16.2861 21.9283C16.2878 23.2438 17.3537 24.31 18.6695 24.3116ZM18.6695 20.3901C19.5189 20.3901 20.2077 21.0786 20.2077 21.928C20.208 22.7774 19.5192 23.4662 18.6697 23.4662C17.8203 23.4662 17.1315 22.7777 17.1315 21.9283C17.1325 21.0793 17.8206 20.3912 18.6695 20.3901Z" fill="#CFCFCF"/>
<path d="M0.422703 1.50973H3.00114C3.84962 1.50643 4.57307 2.12421 4.70233 2.96301L6.74343 15.8562C6.93615 17.1063 8.01461 18.0275 9.27965 18.0225H21.8961C22.1294 18.0225 22.3188 17.8331 22.3188 17.5998C22.3188 17.3663 22.1294 17.1771 21.8961 17.1771H9.27965C8.43118 17.1804 7.70773 16.5624 7.57846 15.7238L7.23148 13.5318H20.1529C21.247 13.5313 22.2207 12.8383 22.5792 11.8049L24.9765 4.88593C25.0216 4.75667 25.001 4.61372 24.9218 4.50215C24.8423 4.39081 24.714 4.32453 24.5772 4.32453H5.77372L5.53736 2.83068C5.34465 1.5805 4.26619 0.659373 3.00114 0.664327H0.422703C0.189178 0.664327 0 0.853741 0 1.08703C0 1.32055 0.189178 1.50973 0.422703 1.50973ZM23.9832 5.17017L21.7805 11.5279C21.5399 12.2212 20.8868 12.6861 20.1529 12.6864H7.09749L5.90746 5.16993L23.9832 5.17017Z" fill="#CFCFCF"/>
</g>
<defs>
<clipPath id="clip0_3_881">
<rect width="25" height="25" fill="white"/>
</clipPath>
</defs>
</svg>
