<svg width="56" height="56" viewBox="0 0 56 56" fill="none" xmlns="http://www.w3.org/2000/svg">
<circle cx="28" cy="28" r="28" fill="#F9F9F9"/>
<path d="M28.008 41.0013C23.064 41.0018 18.505 38.1688 16.3215 33.7098C14.112 29.1963 14.781 23.5673 17.987 19.7028C21.1895 15.8423 26.396 14.1578 31.25 15.4113C31.7845 15.5493 32.106 16.0948 31.9685 16.6298C31.8305 17.1648 31.2845 17.4858 30.75 17.3483C26.644 16.2878 22.237 17.7128 19.5265 20.9803C16.8145 24.2498 16.2485 29.0123 18.118 32.8313C19.9805 36.6353 24.089 39.1133 28.306 38.9983C32.5225 38.8833 36.349 36.3188 38.0545 32.4653C39.056 30.2023 39.268 27.6398 38.6505 25.2493C38.5125 24.7148 38.834 24.1693 39.369 24.0308C39.9025 23.8923 40.449 24.2143 40.5875 24.7493C41.3165 27.5738 41.067 30.6018 39.884 33.2748C37.868 37.8298 33.3445 40.8613 28.361 40.9973C28.243 40.9998 28.125 41.0013 28.008 41.0013Z" fill="#D24545"/>
<path d="M28.0001 31.12C27.7441 31.12 27.4881 31.0225 27.2931 30.827C26.9026 30.4365 26.9026 29.8035 27.2931 29.413L39.2931 17.413C39.6831 17.0225 40.3171 17.0225 40.7071 17.413C41.0976 17.8035 41.0976 18.4365 40.7071 18.827L28.7071 30.827C28.5121 31.022 28.2561 31.12 28.0001 31.12Z" fill="#D24545"/>
<path d="M27.9999 31.1198C27.7439 31.1198 27.4879 31.0223 27.2929 30.8268L23.0504 26.5843C22.6599 26.1938 22.6599 25.5608 23.0504 25.1703C23.4404 24.7798 24.0744 24.7798 24.4644 25.1703L28.7069 29.4128C29.0974 29.8033 29.0974 30.4363 28.7069 30.8268C28.5119 31.0218 28.2559 31.1198 27.9999 31.1198Z" fill="#D24545"/>
</svg>
