<svg width="21" height="20" viewBox="0 0 21 20" fill="none" xmlns="http://www.w3.org/2000/svg">
<path d="M10.0959 18.1259C7.00593 18.1262 4.15655 16.3556 2.79187 13.5687C1.41093 10.7478 1.82905 7.22968 3.8328 4.81437C5.83437 2.40156 9.08843 1.34874 12.1222 2.13218C12.4562 2.21843 12.6572 2.55937 12.5712 2.89374C12.485 3.22812 12.1437 3.42874 11.8097 3.34281C9.24343 2.67999 6.48905 3.57062 4.79499 5.61281C3.09999 7.65624 2.74624 10.6328 3.91468 13.0197C5.07874 15.3972 7.64655 16.9459 10.2822 16.8741C12.9175 16.8022 15.3091 15.1994 16.375 12.7909C17.0009 11.3766 17.1334 9.77499 16.7475 8.28093C16.6612 7.94687 16.8622 7.60593 17.1966 7.51937C17.53 7.43281 17.8716 7.63406 17.9581 7.96843C18.4137 9.73374 18.2578 11.6262 17.5184 13.2969C16.2584 16.1437 13.4312 18.0384 10.3166 18.1234C10.2428 18.125 10.1691 18.1259 10.0959 18.1259Z" fill="#68D073"/>
<path d="M10.0907 11.95C9.93074 11.95 9.77074 11.8891 9.64887 11.7669C9.4048 11.5228 9.4048 11.1272 9.64887 10.8831L17.1489 3.38312C17.3926 3.13906 17.7889 3.13906 18.0326 3.38312C18.2767 3.62718 18.2767 4.02281 18.0326 4.26687L10.5326 11.7669C10.4107 11.8887 10.2507 11.95 10.0907 11.95Z" fill="#68D073"/>
<path d="M10.0909 11.95C9.93094 11.95 9.77094 11.8891 9.64906 11.7669L6.9975 9.11532C6.75344 8.87126 6.75344 8.47563 6.9975 8.23157C7.24125 7.98751 7.6375 7.98751 7.88125 8.23157L10.5328 10.8831C10.7769 11.1272 10.7769 11.5228 10.5328 11.7669C10.4109 11.8888 10.2509 11.95 10.0909 11.95Z" fill="#68D073"/>
</svg>
