<svg width="20" height="20" viewBox="0 0 20 20" fill="none" xmlns="http://www.w3.org/2000/svg">
<path d="M10 20C15.5133 20 20 15.5133 20 10C20 4.48668 15.5134 0 10 0C4.48662 0 0 4.48668 0 10C0 15.5133 4.48668 20 10 20ZM10 1.33331C14.78 1.33331 18.6667 5.21996 18.6667 10C18.6667 14.78 14.78 18.6667 10 18.6667C5.21996 18.6667 1.33331 14.78 1.33331 10C1.33331 5.21996 5.22002 1.33331 10 1.33331Z" fill="#D24545"/>
<path d="M12.9166 13.1867C13.0399 13.2866 13.1866 13.3333 13.3332 13.3333C13.5299 13.3333 13.7232 13.2467 13.8532 13.0833C14.0832 12.7967 14.0365 12.3767 13.7499 12.1467L10.6666 9.67999V4.66666C10.6666 4.29998 10.3666 4 9.99991 4C9.63324 4 9.33325 4.29998 9.33325 4.66666V10C9.33325 10.2034 9.4266 10.3933 9.58325 10.52L12.9166 13.1867Z" fill="#D24545"/>
</svg>
