<svg width="21" height="20" viewBox="0 0 21 20" fill="none" xmlns="http://www.w3.org/2000/svg">
<g clip-path="url(#clip0_19_3702)">
<path d="M13.0309 7.24603C12.7722 7.24603 12.5625 7.45571 12.5625 7.71442V16.5669C12.5625 16.8254 12.7722 17.0352 13.0309 17.0352C13.2896 17.0352 13.4993 16.8254 13.4993 16.5669V7.71442C13.4993 7.45571 13.2896 7.24603 13.0309 7.24603Z" fill="#D24545"/>
<path d="M7.50549 7.24603C7.24678 7.24603 7.03711 7.45571 7.03711 7.71442V16.5669C7.03711 16.8254 7.24678 17.0352 7.50549 17.0352C7.7642 17.0352 7.97388 16.8254 7.97388 16.5669V7.71442C7.97388 7.45571 7.7642 7.24603 7.50549 7.24603Z" fill="#D24545"/>
<path d="M3.47677 5.95413V17.4941C3.47677 18.1762 3.72688 18.8167 4.16379 19.2763C4.59869 19.7372 5.20393 19.9988 5.83734 19.9999H14.6993C15.3329 19.9988 15.9381 19.7372 16.3728 19.2763C16.8097 18.8167 17.0599 18.1762 17.0599 17.4941V5.95413C17.9284 5.7236 18.4912 4.88453 18.375 3.99333C18.2586 3.1023 17.4995 2.43577 16.6008 2.43559H14.2027V1.85011C14.2055 1.35776 14.0108 0.884987 13.6623 0.537177C13.3137 0.189549 12.8402 -0.00402466 12.3479 5.06458e-07H8.18877C7.69642 -0.00402466 7.22291 0.189549 6.87437 0.537177C6.52583 0.884987 6.33115 1.35776 6.3339 1.85011V2.43559H3.93582C3.03711 2.43577 2.278 3.1023 2.16164 3.99333C2.04546 4.88453 2.60825 5.7236 3.47677 5.95413ZM14.6993 19.0632H5.83734C5.03652 19.0632 4.41353 18.3752 4.41353 17.4941V5.9953H16.1231V17.4941C16.1231 18.3752 15.5001 19.0632 14.6993 19.0632ZM7.27066 1.85011C7.26755 1.60622 7.36343 1.37148 7.53651 1.19932C7.70941 1.02715 7.94469 0.932557 8.18877 0.936765H12.3479C12.5919 0.932557 12.8272 1.02715 13.0001 1.19932C13.1732 1.3713 13.2691 1.60622 13.266 1.85011V2.43559H7.27066V1.85011ZM3.93582 3.37235H16.6008C17.0664 3.37235 17.4439 3.7498 17.4439 4.21544C17.4439 4.68108 17.0664 5.05853 16.6008 5.05853H3.93582C3.47018 5.05853 3.09273 4.68108 3.09273 4.21544C3.09273 3.7498 3.47018 3.37235 3.93582 3.37235Z" fill="#D24545"/>
<path d="M10.2692 7.24603C10.0105 7.24603 9.80078 7.45571 9.80078 7.71442V16.5669C9.80078 16.8254 10.0105 17.0352 10.2692 17.0352C10.5279 17.0352 10.7375 16.8254 10.7375 16.5669V7.71442C10.7375 7.45571 10.5279 7.24603 10.2692 7.24603Z" fill="#D24545"/>
</g>
<defs>
<clipPath id="clip0_19_3702">
<rect width="20" height="20" fill="white" transform="translate(0.273438)"/>
</clipPath>
</defs>
</svg>
