<svg width="15" height="15" viewBox="0 0 15 15" fill="none" xmlns="http://www.w3.org/2000/svg">
<path d="M14.9444 7.32248C14.8263 7.1506 11.9875 3.12491 7.49996 3.12491C3.64927 3.12491 0.217965 7.12748 0.0735876 7.29811C-0.0245292 7.41436 -0.0245292 7.58499 0.0735876 7.70185C0.217965 7.87248 3.64927 11.8751 7.49996 11.8751C11.3507 11.8751 14.7819 7.87248 14.9263 7.70185C15.017 7.59436 15.0251 7.43874 14.9444 7.32248ZM7.49996 11.2501C4.41305 11.2501 1.47798 8.30626 0.732367 7.5C1.47675 6.69312 4.40868 3.74994 7.49996 3.74994C11.1119 3.74994 13.6613 6.68937 14.2838 7.48312C13.565 8.26375 10.6131 11.2501 7.49996 11.2501Z" fill="#CFCFCF"/>
<path d="M7.50003 4.99994C6.12127 4.99994 5 6.12121 5 7.49997C5 8.87873 6.12127 10 7.50003 10C8.87879 10 10.0001 8.87873 10.0001 7.49997C10.0001 6.12121 8.87879 4.99994 7.50003 4.99994ZM7.50003 9.37503C6.46627 9.37503 5.625 8.53375 5.625 7.5C5.625 6.46624 6.46627 5.62497 7.50003 5.62497C8.53379 5.62497 9.37506 6.46624 9.37506 7.5C9.37506 8.53375 8.53379 9.37503 7.50003 9.37503Z" fill="#CFCFCF"/>
</svg>
