<svg width="20" height="20" viewBox="0 0 20 20" fill="none" xmlns="http://www.w3.org/2000/svg">
<path d="M14.7917 0.833374C12.5732 0.833374 10.741 2.89392 10 3.86642C9.25902 2.89392 7.42676 0.833374 5.20832 0.833374C2.33645 0.833374 0 3.47376 0 6.7188C0 8.48923 0.702734 10.1392 1.93277 11.2684C1.95066 11.2993 1.97266 11.3278 1.99828 11.3534L9.70582 19.0451C9.78719 19.126 9.8934 19.1667 10 19.1667C10.1066 19.1667 10.2132 19.126 10.2946 19.0447L18.2585 11.0836L18.3407 11.0039C18.4058 10.9424 18.4701 10.8802 18.5421 10.8004C18.5722 10.7708 18.597 10.7374 18.6161 10.7011C19.5093 9.6074 20 8.19665 20 6.7188C20 3.47376 17.6636 0.833374 14.7917 0.833374Z" fill="#CFCFCF"/>
</svg>
