<svg width="25" height="23" viewBox="0 0 25 23" fill="none" xmlns="http://www.w3.org/2000/svg">
<path d="M12.4977 22.543L1.9819 12.0271C-0.660634 9.38461 -0.660634 5.08597 1.9819 2.44343C3.26244 1.16289 4.9638 0.457009 6.77376 0.457009C8.58371 0.457009 10.2851 1.16289 11.5656 2.43891L12.4977 3.37104L13.4299 2.43891C14.7104 1.15837 16.4118 0.452484 18.2217 0.452484C20.0317 0.452484 21.733 1.15837 23.0136 2.43891C24.2941 3.72398 24.9955 5.42533 24.9955 7.23529C24.9955 9.04525 24.2896 10.7421 23.0136 12.0271L12.4932 22.543H12.4977ZM3.75113 12.5204L3.8733 12.638L12.4932 21.2579L22.371 11.3846C23.4796 10.2715 24.0905 8.79638 24.0905 7.23529C24.0905 5.6742 23.4796 4.19004 22.371 3.08144C21.2624 1.97285 19.7873 1.36199 18.2172 1.36199C16.6471 1.36199 15.1719 1.97285 14.0633 3.08144L12.4887 4.6561L10.914 3.08144C9.80543 1.97285 8.33032 1.36199 6.76471 1.36199C5.1991 1.36199 3.71946 1.97285 2.61538 3.08144C0.330317 5.37104 0.330317 9.09954 2.61991 11.3891L3.75113 12.5249V12.5204Z" fill="#CFCFCF"/>
</svg>
