<svg width="16" height="16" viewBox="0 0 16 16" fill="none" xmlns="http://www.w3.org/2000/svg">
<g clip-path="url(#clip0_16_3985)">
<path d="M7.91559 0.5C5.59984 0.5 3.71582 2.38402 3.71582 4.69979V6.75623C3.71582 6.89627 3.82946 7.00982 3.9695 7.00982H5.37742C5.51746 7.00982 5.63102 6.89627 5.63102 6.75623V4.69979C5.63102 3.44009 6.65585 2.41522 7.91556 2.41522C9.17526 2.41522 10.2001 3.44009 10.2001 4.69979V6.75623C10.2001 6.89627 10.3138 7.00982 10.4538 7.00982H11.8618C12.0018 7.00982 12.1154 6.89627 12.1154 6.75623V4.69979C12.1154 2.38402 10.2314 0.5 7.91559 0.5ZM11.6082 6.50264H10.7074V4.69979C10.7074 3.16042 9.45499 1.90804 7.91564 1.90804C6.3763 1.90804 5.12392 3.16042 5.12392 4.69979V6.50264H4.2231V4.69979C4.2231 2.66369 5.87954 1.00722 7.91562 1.00722C9.95172 1.00722 11.6082 2.66369 11.6082 4.69979V6.50264Z" fill="#CFCFCF"/>
<path d="M12.4457 6.50264H3.38539C2.78466 6.50264 2.2959 6.9914 2.2959 7.59213V14.4105C2.2959 15.0112 2.78466 15.5 3.38539 15.5H12.4457C13.0464 15.5 13.5352 15.0112 13.5352 14.4105V7.59213C13.5352 6.9914 13.0464 6.50264 12.4457 6.50264ZM13.028 14.4105C13.028 14.7316 12.7668 14.9928 12.4457 14.9928H3.38539C3.0643 14.9928 2.80309 14.7316 2.80309 14.4105V7.59213C2.80309 7.27104 3.0643 7.00983 3.38539 7.00983H12.4457C12.7668 7.00983 13.028 7.27104 13.028 7.59213V14.4105Z" fill="#CFCFCF"/>
<path d="M8.76917 11.3334C9.06545 11.0838 9.23786 10.7188 9.23786 10.3266C9.23786 9.59794 8.64501 9.00509 7.91631 9.00509C7.18758 9.00509 6.59473 9.59794 6.59473 10.3266C6.59473 10.7188 6.76714 11.0838 7.06348 11.3335L6.77839 12.6917C6.76271 12.7666 6.78155 12.8444 6.82972 12.9037C6.87791 12.963 6.95021 12.9975 7.02659 12.9975H8.80603C8.88243 12.9975 8.95474 12.963 9.00287 12.9037C9.05101 12.8444 9.06984 12.7665 9.05417 12.6918L8.76917 11.3334ZM8.35143 11.0123C8.26236 11.069 8.21769 11.175 8.23939 11.2784L8.49369 12.4902H7.33896L7.59331 11.2784C7.61499 11.175 7.5704 11.0691 7.48128 11.0124C7.24374 10.8612 7.10194 10.6048 7.10194 10.3267C7.10194 9.87764 7.46725 9.51233 7.91631 9.51233C8.36534 9.51233 8.73064 9.87764 8.73064 10.3267C8.7307 10.6049 8.58891 10.8612 8.35143 11.0123Z" fill="#CFCFCF"/>
</g>
<defs>
<clipPath id="clip0_16_3985">
<rect width="15" height="15" fill="white" transform="translate(0.416016 0.5)"/>
</clipPath>
</defs>
</svg>
