<svg width="16" height="17" viewBox="0 0 16 17" fill="none" xmlns="http://www.w3.org/2000/svg">
<g clip-path="url(#clip0_16_3667)">
<path d="M9.66659 14.5H6.99992C6.08125 14.5 5.33325 13.752 5.33325 12.8333V11.5C5.33325 11.316 5.48259 11.1667 5.66659 11.1667C5.85059 11.1667 5.99992 11.316 5.99992 11.5V12.8333C5.99992 13.3847 6.44859 13.8333 6.99992 13.8333H9.66659C9.85059 13.8333 9.99992 13.9827 9.99992 14.1667C9.99992 14.3507 9.85059 14.5 9.66659 14.5Z" fill="white"/>
<path d="M7 7.83332H0.333333C0.149333 7.83332 0 7.68399 0 7.49999C0 7.31599 0.149333 7.16666 0.333333 7.16666H7C7.184 7.16666 7.33333 7.31599 7.33333 7.49999C7.33333 7.68399 7.184 7.83332 7 7.83332Z" fill="white"/>
<path d="M10.6666 16.5C9.93125 16.5 9.33325 15.902 9.33325 15.1667V3.16667C9.33325 2.59333 9.70125 2.086 10.2486 1.90333L14.2486 0.57C14.3753 0.524667 14.5186 0.5 14.6666 0.5C15.4019 0.5 15.9999 1.098 15.9999 1.83333V13.8333C15.9999 14.406 15.6326 14.914 15.0853 15.096L11.0853 16.4293C10.9566 16.4753 10.8133 16.5 10.6666 16.5ZM14.6666 1.16667C14.5973 1.16667 14.5279 1.17867 14.4666 1.2L10.4593 2.536C10.1839 2.62733 9.99992 2.88067 9.99992 3.16667V15.1667C9.99992 15.534 10.2993 15.8333 10.6666 15.8333C10.7359 15.8333 10.8053 15.8213 10.8679 15.7993L14.8746 14.464C15.1486 14.372 15.3333 14.1187 15.3333 13.8333V1.83333C15.3333 1.466 15.0339 1.16667 14.6666 1.16667Z" fill="white"/>
<path d="M5.66659 3.83333C5.48259 3.83333 5.33325 3.684 5.33325 3.5V2.16667C5.33325 1.248 6.08125 0.5 6.99992 0.5H14.6666C14.8506 0.5 14.9999 0.649333 14.9999 0.833333C14.9999 1.01733 14.8506 1.16667 14.6666 1.16667H6.99992C6.44859 1.16667 5.99992 1.61533 5.99992 2.16667V3.5C5.99992 3.684 5.85059 3.83333 5.66659 3.83333Z" fill="white"/>
<path d="M4.33326 10.5C4.24792 10.5 4.16259 10.4673 4.09726 10.4027C3.96726 10.2727 3.96726 10.0613 4.09726 9.93132L6.52859 7.49999L4.09726 5.06932C3.96726 4.93932 3.96726 4.72799 4.09726 4.59799C4.22726 4.46799 4.43859 4.46799 4.56859 4.59799L7.23526 7.26466C7.36526 7.39466 7.36526 7.60599 7.23526 7.73599L4.56859 10.4027C4.50392 10.4673 4.41859 10.5 4.33326 10.5Z" fill="white"/>
</g>
<defs>
<clipPath id="clip0_16_3667">
<rect width="16" height="16" fill="white" transform="translate(0 0.5)"/>
</clipPath>
</defs>
</svg>
