<svg width="20" height="17" viewBox="0 0 20 17" fill="none" xmlns="http://www.w3.org/2000/svg">
<path d="M18.2422 0.882812H1.75781C0.789766 0.882812 0 1.67172 0 2.64062V14.3594C0 15.325 0.78625 16.1172 1.75781 16.1172H18.2422C19.2078 16.1172 20 15.3309 20 14.3594V2.64062C20 1.675 19.2138 0.882812 18.2422 0.882812ZM17.9995 2.05469L10.0373 10.0169L2.00621 2.05469H17.9995ZM1.17188 14.1167V2.8777L6.81559 8.47301L1.17188 14.1167ZM2.00051 14.9453L7.64777 9.29805L9.62656 11.2598C9.85563 11.487 10.2253 11.4862 10.4534 11.258L12.3828 9.32863L17.9995 14.9453H2.00051ZM18.8281 14.1167L13.2114 8.5L18.8281 2.88328V14.1167Z" fill="#D24545"/>
</svg>
