<svg width="17" height="17" viewBox="0 0 17 17" fill="none" xmlns="http://www.w3.org/2000/svg">
<g clip-path="url(#clip0_20_5112)">
<path d="M9.94076 14.5H7.27409C6.35542 14.5 5.60742 13.752 5.60742 12.8333V11.5C5.60742 11.316 5.75676 11.1667 5.94076 11.1667C6.12476 11.1667 6.27409 11.316 6.27409 11.5V12.8333C6.27409 13.3847 6.72276 13.8333 7.27409 13.8333H9.94076C10.1248 13.8333 10.2741 13.9827 10.2741 14.1667C10.2741 14.3507 10.1248 14.5 9.94076 14.5Z" fill="#D24545"/>
<path d="M10.9408 16.5C10.2054 16.5 9.60742 15.902 9.60742 15.1667V3.16667C9.60742 2.59333 9.97542 2.086 10.5228 1.90333L14.5228 0.57C14.6494 0.524667 14.7928 0.5 14.9408 0.5C15.6761 0.5 16.2741 1.098 16.2741 1.83333V13.8333C16.2741 14.406 15.9068 14.914 15.3594 15.096L11.3594 16.4293C11.2308 16.4753 11.0874 16.5 10.9408 16.5ZM14.9408 1.16667C14.8714 1.16667 14.8021 1.17867 14.7408 1.2L10.7334 2.536C10.4581 2.62733 10.2741 2.88067 10.2741 3.16667V15.1667C10.2741 15.534 10.5734 15.8333 10.9408 15.8333C11.0101 15.8333 11.0794 15.8213 11.1421 15.7993L15.1488 14.464C15.4228 14.372 15.6074 14.1187 15.6074 13.8333V1.83333C15.6074 1.466 15.3081 1.16667 14.9408 1.16667Z" fill="#D24545"/>
<path d="M5.94076 3.83333C5.75676 3.83333 5.60742 3.684 5.60742 3.5V2.16667C5.60742 1.248 6.35542 0.5 7.27409 0.5H14.9408C15.1248 0.5 15.2741 0.649333 15.2741 0.833333C15.2741 1.01733 15.1248 1.16667 14.9408 1.16667H7.27409C6.72276 1.16667 6.27409 1.61533 6.27409 2.16667V3.5C6.27409 3.684 6.12476 3.83333 5.94076 3.83333Z" fill="#D24545"/>
<path d="M0.607422 7.83332H7.27409C7.45809 7.83332 7.60742 7.68399 7.60742 7.49999C7.60742 7.31599 7.45809 7.16666 7.27409 7.16666H0.607422C0.423422 7.16666 0.274088 7.31599 0.274088 7.49999C0.274088 7.68399 0.423422 7.83332 0.607422 7.83332Z" fill="#D24545"/>
<path d="M3.27392 10.5C3.35926 10.5 3.44459 10.4673 3.50992 10.4027C3.63992 10.2727 3.63992 10.0613 3.50992 9.93132L1.07859 7.49999L3.50992 5.06932C3.63992 4.93932 3.63992 4.72799 3.50992 4.59799C3.37992 4.46799 3.16859 4.46799 3.03859 4.59799L0.371922 7.26466C0.241922 7.39466 0.241922 7.60599 0.371922 7.73599L3.03859 10.4027C3.10326 10.4673 3.18859 10.5 3.27392 10.5Z" fill="#D24545"/>
</g>
<defs>
<clipPath id="clip0_20_5112">
<rect width="16" height="16" fill="white" transform="translate(0.273438 0.5)"/>
</clipPath>
</defs>
</svg>
