<svg width="20" height="20" viewBox="0 0 20 20" fill="none" xmlns="http://www.w3.org/2000/svg">
<path d="M19.0157 14.4095C18.9627 14.2093 18.8683 14.0224 18.7386 13.8609C18.6089 13.6994 18.4467 13.5669 18.2626 13.472L14.397 11.4689C14.0851 11.3035 13.7241 11.2557 13.3799 11.3343C13.0357 11.4129 12.7312 11.6126 12.522 11.897L11.897 12.7532C11.8649 12.7977 11.8176 12.829 11.7641 12.8411C11.7106 12.8531 11.6545 12.8453 11.6064 12.8189C10.6872 12.2958 9.84574 11.6468 9.10635 10.8907C8.35029 10.1513 7.7013 9.30986 7.17823 8.39075C7.15185 8.34263 7.14396 8.28654 7.15605 8.23301C7.16813 8.17949 7.19936 8.13223 7.24385 8.10012L8.09698 7.47512C8.38135 7.26589 8.58104 6.96141 8.65964 6.61722C8.73823 6.27302 8.69048 5.91205 8.5251 5.60012L6.53448 1.73762C6.43888 1.55327 6.30551 1.39113 6.14306 1.26176C5.98061 1.1324 5.79272 1.03872 5.59164 0.986832C5.39056 0.93494 5.1808 0.926001 4.97604 0.960598C4.77128 0.995194 4.5761 1.07255 4.40323 1.18762L1.97511 2.81262C1.63416 3.03964 1.35885 3.35226 1.17676 3.71918C0.994675 4.0861 0.912202 4.49442 0.937606 4.90325C0.969742 5.59447 1.06281 6.28151 1.21573 6.95637C1.87511 9.50012 3.46573 12.1157 5.67511 14.3282C7.88448 16.5407 10.5032 18.1251 13.047 18.7782C13.7219 18.9311 14.4089 19.0242 15.1001 19.0564H15.2564C15.6377 19.0555 16.0131 18.9614 16.3497 18.7822C16.6863 18.603 16.974 18.3442 17.1876 18.0282L18.8064 15.6001C18.9232 15.4276 19.0022 15.2324 19.0383 15.0272C19.0744 14.822 19.0667 14.6115 19.0157 14.4095ZM17.7657 14.9032L16.1564 17.3345C16.0495 17.4922 15.9034 17.6192 15.7324 17.7031C15.5614 17.787 15.3714 17.8247 15.1814 17.8126C14.5683 17.7843 13.9588 17.7038 13.3595 17.572C11.0282 16.9657 8.61573 15.5001 6.5626 13.4376C4.50948 11.3751 3.03761 8.972 2.43136 6.64075C2.29845 6.04149 2.2169 5.43199 2.18761 4.81887C2.17512 4.62918 2.21272 4.43954 2.29664 4.26896C2.38055 4.09839 2.50784 3.95287 2.66573 3.847L5.09385 2.22825C5.13082 2.2035 5.17437 2.19043 5.21886 2.19075H5.27823C5.309 2.19877 5.33772 2.21322 5.3625 2.23315C5.38728 2.25308 5.40755 2.27803 5.42198 2.30637L7.42198 6.172C7.44684 6.21993 7.45388 6.27513 7.44187 6.32777C7.42985 6.38042 7.39955 6.42709 7.35636 6.4595L6.50323 7.0845C6.21394 7.29972 6.0135 7.61346 5.9398 7.96642C5.8661 8.31938 5.92424 8.68711 6.10323 9.00012C6.68163 10.0112 7.3967 10.9376 8.22823 11.7532C9.04383 12.5848 9.97028 13.2999 10.9814 13.8782C11.2944 14.0572 11.6621 14.1154 12.0151 14.0417C12.368 13.968 12.6818 13.7675 12.897 13.4782L13.522 12.622C13.5544 12.5788 13.6011 12.5485 13.6537 12.5365C13.7063 12.5245 13.7615 12.5315 13.8095 12.5564L17.6751 14.5564C17.7034 14.5712 17.7283 14.5918 17.7481 14.6168C17.7679 14.6418 17.7823 14.6707 17.7903 14.7017C17.7982 14.7326 17.7996 14.7649 17.7943 14.7964C17.789 14.8278 17.7771 14.8579 17.7595 14.8845L17.7657 14.9032Z" fill="#D24545"/>
</svg>
