<svg width="16" height="20" viewBox="0 0 16 20" fill="none" xmlns="http://www.w3.org/2000/svg">
<path d="M7.99995 3.03271C5.59626 3.03271 3.64062 4.98827 3.64062 7.39196C3.64062 9.79566 5.59626 11.7512 7.99995 11.7512C10.4036 11.7512 12.3593 9.79566 12.3593 7.39196C12.3593 4.98827 10.4036 3.03271 7.99995 3.03271ZM7.99995 10.5786C6.24279 10.5786 4.81316 9.14905 4.81316 7.39189C4.81316 5.63473 6.24279 4.20525 7.99995 4.20525C9.75711 4.20525 11.1867 5.6348 11.1867 7.39196C11.1867 9.14912 9.75719 10.5786 7.99995 10.5786Z" fill="#D24545"/>
<path d="M8.00004 0C3.92399 0 0.60791 3.31608 0.60791 7.39213C0.60791 9.74282 2.57933 13.245 3.75445 15.1234C4.52761 16.3591 5.35847 17.5353 6.09389 18.435C7.27432 19.8791 7.69682 19.9999 8.00011 19.9999C8.30794 19.9999 8.70684 19.879 9.8836 18.4341C10.6207 17.529 11.4519 16.3536 12.2243 15.1243C13.4075 13.2414 15.3922 9.7329 15.3922 7.39205C15.3922 3.31608 12.0762 0 8.00004 0ZM11.4114 14.2114C9.89524 16.6723 8.50329 18.3353 7.99308 18.7598C7.48021 18.3484 6.11085 16.725 4.5735 14.2191C2.79852 11.3257 1.78052 8.83732 1.78052 7.39213C1.78044 3.96262 4.57053 1.17253 8.00004 1.17253C11.4295 1.17253 14.2196 3.96262 14.2196 7.39213C14.2197 8.82903 13.1961 11.3145 11.4114 14.2114Z" fill="#D24545"/>
</svg>
