<svg width="20" height="20" viewBox="0 0 20 20" fill="none" xmlns="http://www.w3.org/2000/svg">
<path d="M9.99222 3.98529C7.68452 3.98529 5.81055 5.86336 5.81055 8.16696C5.81055 10.4706 7.68452 12.3527 9.99222 12.3527C12.2999 12.3527 14.1739 10.4747 14.1739 8.17105C14.1739 5.86745 12.2999 3.98529 9.99222 3.98529ZM9.99222 11.3503C8.2369 11.3503 6.813 9.92228 6.813 8.17105C6.813 6.41982 8.24099 4.99184 9.99222 4.99184C11.7434 4.99184 13.1714 6.41982 13.1714 8.17105C13.1714 9.92228 11.7475 11.3503 9.99222 11.3503Z" fill="#D24545"/>
<path d="M9.99309 0C9.89898 0 9.80078 0 9.70668 0.00409165C5.67231 0.143208 2.33761 3.27741 1.95299 7.29133C1.87934 8.06874 1.91617 8.85025 2.05938 9.59493C2.05938 9.59493 2.07165 9.68904 2.11666 9.86498C2.23941 10.4173 2.42353 10.9534 2.65676 11.4525C3.48736 13.4206 5.30815 16.4525 9.26069 19.734C9.46936 19.9059 9.73123 20 10.0013 20C10.2713 20 10.5332 19.9059 10.7419 19.734C14.6903 16.4566 16.5111 13.4206 17.3376 11.4689C17.5749 10.9574 17.759 10.4173 17.8818 9.86907C17.9063 9.77087 17.9227 9.68903 17.935 9.61129C18.0332 9.10802 18.0823 8.59247 18.0823 8.07692C18.0741 3.6252 14.4489 0 9.99309 0ZM16.9407 9.43944C16.9407 9.44763 16.9284 9.51719 16.8998 9.64403C16.7893 10.1268 16.6298 10.5974 16.417 11.0638C15.6273 12.9296 13.8924 15.8142 10.0995 18.9607C10.0626 18.9894 10.0258 18.9975 9.99718 18.9975C9.97263 18.9975 9.93172 18.9894 9.89489 18.9607C6.10193 15.8101 4.36298 12.9255 3.5692 11.0475C3.36052 10.5974 3.20095 10.1268 3.09047 9.63994C3.06592 9.53355 3.05365 9.46809 3.04956 9.44763C3.04956 9.43944 3.04546 9.43126 3.04546 9.42308C2.91862 8.75614 2.88589 8.06874 2.95136 7.38953C3.29096 3.8748 6.20831 1.1293 9.7435 1.00655C13.7574 0.867431 17.0717 4.09165 17.0717 8.08102C17.0717 8.5311 17.0266 8.98118 16.9407 9.43944Z" fill="#D24545"/>
</svg>
