<svg width="183" height="141" viewBox="0 0 183 141" fill="none" xmlns="http://www.w3.org/2000/svg">
<path d="M15.0183 30.9229C9.6278 30.9229 5.24219 35.3085 5.24219 40.699C5.24219 47.4743 15.0279 59.0479 15.0279 59.0479C15.0279 59.0479 24.7945 47.1411 24.7945 40.699C24.7945 35.3085 20.409 30.9229 15.0183 30.9229ZM17.968 43.5614C17.1547 44.3746 16.0866 44.7813 15.0183 44.7813C13.9502 44.7813 12.8818 44.3746 12.0688 43.5614C10.4423 41.9351 10.4423 39.2888 12.0688 37.6623C12.8564 36.8744 13.9041 36.4404 15.0183 36.4404C16.1326 36.4404 17.1801 36.8745 17.968 37.6623C19.5945 39.2888 19.5945 41.9351 17.968 43.5614Z" fill="#D24545"/>
<path d="M98.0183 111.923C92.6278 111.923 88.2422 116.308 88.2422 121.699C88.2422 128.474 98.0279 140.048 98.0279 140.048C98.0279 140.048 107.794 128.141 107.794 121.699C107.794 116.308 103.409 111.923 98.0183 111.923ZM100.968 124.561C100.155 125.375 99.0866 125.781 98.0183 125.781C96.9502 125.781 95.8818 125.375 95.0688 124.561C93.4423 122.935 93.4423 120.289 95.0688 118.662C95.8564 117.874 96.9041 117.44 98.0183 117.44C99.1326 117.44 100.18 117.875 100.968 118.662C102.594 120.289 102.594 122.935 100.968 124.561Z" fill="#D24545"/>
<path d="M167.018 0.922852C161.628 0.922852 157.242 5.30846 157.242 10.699C157.242 17.4743 167.028 29.0479 167.028 29.0479C167.028 29.0479 176.794 17.1411 176.794 10.699C176.794 5.30846 172.409 0.922852 167.018 0.922852ZM169.968 13.5614C169.155 14.3746 168.087 14.7813 167.018 14.7813C165.95 14.7813 164.882 14.3746 164.069 13.5614C162.442 11.9351 162.442 9.28877 164.069 7.66228C164.856 6.87435 165.904 6.44039 167.018 6.44039C168.133 6.44039 169.18 6.87453 169.968 7.66228C171.594 9.28877 171.594 11.9351 169.968 13.5614Z" fill="#D24545"/>
<path d="M167.018 82.9229C161.628 82.9229 157.242 87.3085 157.242 92.699C157.242 99.4743 167.028 111.048 167.028 111.048C167.028 111.048 176.794 99.1411 176.794 92.699C176.794 87.3085 172.409 82.9229 167.018 82.9229ZM169.968 95.5614C169.155 96.3746 168.087 96.7813 167.018 96.7813C165.95 96.7813 164.882 96.3746 164.069 95.5614C162.442 93.9351 162.442 91.2888 164.069 89.6623C164.856 88.8744 165.904 88.4404 167.018 88.4404C168.133 88.4404 169.18 88.8745 169.968 89.6623C171.594 91.2888 171.594 93.9351 169.968 95.5614Z" fill="#D24545"/>
</svg>
