<svg width="10" height="10" viewBox="0 0 10 10" fill="none" xmlns="http://www.w3.org/2000/svg">
<g clip-path="url(#clip0_15_7295)">
<path d="M0.305985 5.20552C0.240784 5.14032 0.200384 5.05032 0.200757 4.95087C0.200757 4.75198 0.361986 4.59075 0.560882 4.59075H9.44156C9.64046 4.59075 9.80168 4.75198 9.80168 4.95087C9.80168 5.14977 9.64046 5.311 9.4415 5.31106H0.560944C0.461434 5.31075 0.371123 5.27066 0.305985 5.20552Z" fill="#D24545"/>
<path d="M4.74663 9.64617C4.68143 9.58097 4.6411 9.49103 4.64141 9.39152L4.64103 0.510595C4.6411 0.311637 4.80233 0.150407 5.00122 0.150407C5.20012 0.150407 5.36135 0.311637 5.36141 0.510595L5.36135 9.39121C5.36135 9.59011 5.20012 9.75134 5.00122 9.75134C4.90171 9.75102 4.81146 9.711 4.74663 9.64617Z" fill="#D24545"/>
</g>
<defs>
<clipPath id="clip0_15_7295">
<rect width="7" height="7" fill="white" transform="translate(5) rotate(45)"/>
</clipPath>
</defs>
</svg>
