<svg width="20" height="21" viewBox="0 0 20 21" fill="none" xmlns="http://www.w3.org/2000/svg">
<path d="M19.8781 19.7883L13.7932 13.7033C15.0565 12.3 15.8332 10.4501 15.8332 8.41672C15.8332 4.05177 12.2815 0.500122 7.91656 0.500122C3.55161 0.500122 0 4.05177 0 8.41672C0 12.7817 3.55165 16.3333 7.9166 16.3333C9.9499 16.3333 11.7999 15.5566 13.2032 14.2925L19.2882 20.3775C19.3699 20.4591 19.4765 20.5 19.5832 20.5C19.6898 20.5 19.7965 20.4591 19.8782 20.3783C20.0406 20.215 20.0406 19.9516 19.8781 19.7883ZM7.9166 15.5C4.01082 15.5 0.833351 12.3225 0.833351 8.41676C0.833351 4.51098 4.01078 1.33347 7.9166 1.33347C11.8224 1.33347 14.9999 4.51094 14.9999 8.41672C14.9999 12.3225 11.8224 15.5 7.9166 15.5Z" fill="#CFCFCF"/>
</svg>
