<svg width="60" height="60" viewBox="0 0 60 60" fill="none" xmlns="http://www.w3.org/2000/svg">
<path d="M53.7578 49.4787L51.0784 15.7151C50.9114 13.5398 49.0717 11.8358 46.8902 11.8358H41.5976V11.5979C41.5976 5.20277 36.3949 0 29.9997 0C23.6046 0 18.4018 5.20277 18.4018 11.5979V11.8358H13.1094C10.9277 11.8358 9.08796 13.5397 8.92155 15.7105L6.24124 49.4832C6.03382 52.1873 6.9719 54.8795 8.8148 56.8691C10.6577 58.8587 13.2701 60 15.9822 60H44.0171C46.7291 60 49.3416 58.8588 51.1846 56.8691C53.0275 54.8794 53.9655 52.1873 53.7578 49.4787ZM21.9162 11.5979C21.9162 7.1407 25.5426 3.51445 29.9997 3.51445C34.4568 3.51445 38.0832 7.14082 38.0832 11.5979V11.8358H21.9162V11.5979ZM48.6062 54.4811C47.4087 55.7736 45.7791 56.4855 44.0171 56.4855H15.9823C14.2203 56.4855 12.5907 55.7736 11.3933 54.4811C10.196 53.1884 9.61073 51.5088 9.74526 49.7566L12.4253 15.9838C12.4525 15.6285 12.753 15.3503 13.1094 15.3503H18.4018V19.6786C18.4018 20.649 19.1886 21.4358 20.159 21.4358C21.1294 21.4358 21.9162 20.649 21.9162 19.6786V15.3503H38.0832V19.6786C38.0832 20.649 38.87 21.4358 39.8404 21.4358C40.8109 21.4358 41.5976 20.649 41.5976 19.6786V15.3503H46.8902C47.2464 15.3503 47.5469 15.6286 47.5746 15.9885L50.2541 49.752C50.3888 51.5088 49.8035 53.1882 48.6062 54.4811Z" fill="#D24545"/>
<path d="M37.9165 29.799C37.2305 29.1128 36.1178 29.1128 35.4316 29.799L27.5852 37.6454L24.5681 34.6283C23.882 33.9421 22.7693 33.9421 22.083 34.6283C21.3968 35.3146 21.3968 36.4271 22.083 37.1134L26.3427 41.373C26.6858 41.7162 27.1356 41.8878 27.5851 41.8878C28.0346 41.8878 28.4845 41.7163 28.8275 41.373L37.9164 32.2842C38.6027 31.5979 38.6027 30.4853 37.9165 29.799Z" fill="#D24545"/>
</svg>
