<svg width="20" height="20" viewBox="0 0 20 20" fill="none" xmlns="http://www.w3.org/2000/svg">
<g clip-path="url(#clip0_136_251)">
<path d="M9.78162 17.5426C9.78162 16.4895 8.9279 15.6357 7.87491 15.6357C6.82173 15.6357 5.96802 16.4895 5.96802 17.5424C5.96802 18.5956 6.82173 19.4493 7.87491 19.4493C8.92734 19.4482 9.78049 18.5952 9.78162 17.5426ZM6.64435 17.5426C6.64435 16.8629 7.19519 16.3121 7.87491 16.3121C8.55445 16.3121 9.10529 16.8629 9.10529 17.5424C9.10529 18.2222 8.55445 18.773 7.87491 18.773C7.19556 18.7723 6.6451 18.2218 6.64435 17.5426Z" fill="white"/>
<path d="M14.9355 19.4493C15.9887 19.4495 16.8424 18.5958 16.8424 17.5426C16.8426 16.4895 15.9889 15.6357 14.9357 15.6357C13.8825 15.6357 13.0288 16.4895 13.0288 17.5426C13.0301 18.5951 13.8829 19.448 14.9355 19.4493ZM14.9355 16.3121C15.615 16.3121 16.1661 16.8629 16.1661 17.5424C16.1663 18.222 15.6152 18.773 14.9357 18.773C14.2562 18.773 13.7051 18.2222 13.7051 17.5426C13.7059 16.8635 14.2564 16.313 14.9355 16.3121Z" fill="white"/>
<path d="M0.338162 1.20783H2.40092C3.07969 1.20519 3.65846 1.69942 3.76187 2.37046L5.39475 12.685C5.54892 13.6851 6.41169 14.422 7.42372 14.4181H17.5169C17.7035 14.4181 17.8551 14.2665 17.8551 14.0799C17.8551 13.8931 17.7035 13.7417 17.5169 13.7417H7.42372C6.74494 13.7444 6.16618 13.25 6.06277 12.5791L5.78518 10.8255H16.1223C16.9976 10.8251 17.7766 10.2707 18.0634 9.44394L19.9812 3.90879C20.0173 3.80538 20.0008 3.69103 19.9374 3.60177C19.8738 3.5127 19.7712 3.45967 19.6617 3.45967H4.61897L4.42989 2.26459C4.27572 1.26445 3.41295 0.527547 2.40092 0.53151H0.338162C0.151343 0.53151 0 0.683042 0 0.869672C0 1.05649 0.151343 1.20783 0.338162 1.20783ZM19.1866 4.13618L17.4244 9.2224C17.2319 9.77701 16.7094 10.1489 16.1223 10.1491H5.678L4.72597 4.136L19.1866 4.13618Z" fill="white"/>
</g>
<defs>
<clipPath id="clip0_136_251">
<rect width="20" height="20" fill="white"/>
</clipPath>
</defs>
</svg>
