<svg width="20" height="16" viewBox="0 0 20 16" fill="none" xmlns="http://www.w3.org/2000/svg">
<path d="M20 0.485437C20 0.323323 19.8686 0.191895 19.7065 0.191895H0.293542C0.131429 0.191895 0 0.323323 0 0.485437V5.49522C0 5.65733 0.131429 5.78876 0.293542 5.78876H8.79123L0.158904 10.2441C0.0624266 10.294 0 10.3964 0 10.505V15.5148C0 15.6769 0.131429 15.8083 0.293542 15.8083H14.8719C15.0341 15.8083 15.1655 15.6769 15.1655 15.5148C15.1655 15.3527 15.0341 15.2212 14.8719 15.2212H0.587084V10.7985H2.19178V11.7575C2.19178 11.9196 2.32321 12.051 2.48532 12.051C2.64744 12.051 2.77886 11.9196 2.77886 11.7575V10.7985H5.94912V13.0099C5.94912 13.172 6.08055 13.3034 6.24266 13.3034C6.40478 13.3034 6.5362 13.172 6.5362 13.0099V10.7985H9.70646V11.7575C9.70646 11.9196 9.83789 12.051 10 12.051C10.1621 12.051 10.2935 11.9196 10.2935 11.7575V10.7985H13.4638V13.0099C13.4638 13.172 13.5952 13.3034 13.7573 13.3034C13.9195 13.3034 14.0509 13.172 14.0509 13.0099V10.7985H17.2211V11.7575C17.2211 11.9196 17.3526 12.051 17.5147 12.051C17.6768 12.051 17.8082 11.9196 17.8082 11.7575V10.7985H19.4129V15.2212H16.3014C16.1393 15.2212 16.0078 15.3527 16.0078 15.5148C16.0078 15.6769 16.1393 15.8083 16.3014 15.8083H19.7065C19.8686 15.8083 20 15.6769 20 15.5148V10.505C20 10.3429 19.8686 10.2115 19.7065 10.2115H11.2088L19.8411 5.75608C19.9375 5.7061 20 5.60391 20 5.49522V0.485437ZM19.4129 5.20168H3.40509V4.24277C3.40509 4.08066 3.27366 3.94923 3.11155 3.94923C2.58282 3.94923 2.15264 3.51906 2.15264 2.99033C2.15264 2.4616 2.58282 2.03142 3.11155 2.03142C3.27366 2.03142 3.40509 1.9 3.40509 1.73788V0.778979H5.94912V1.73788C5.94912 1.9 6.08055 2.03142 6.24266 2.03142C6.40478 2.03142 6.5362 1.9 6.5362 1.73788V0.778979H9.70646V2.99033C9.70646 3.15244 9.83789 3.28387 10 3.28387C10.1621 3.28387 10.2935 3.15244 10.2935 2.99033V0.778979H13.4638V1.73788C13.4638 1.9 13.5952 2.03142 13.7573 2.03142C13.9195 2.03142 14.0509 1.9 14.0509 1.73788V0.778979H17.2211V2.99033C17.2211 3.15244 17.3526 3.28387 17.5147 3.28387C17.6768 3.28387 17.8082 3.15244 17.8082 2.99033V0.778979H19.4129V5.20168ZM0.587084 5.20168V0.778979H2.818V1.47229C2.1054 1.60978 1.56556 2.23816 1.56556 2.99033C1.56556 3.7425 2.1054 4.37088 2.818 4.50837V5.20168H0.587084ZM18.4977 5.78876C18.4977 5.78876 10.0013 10.183 9.97718 10.2115H1.50231L10.0713 5.78876H18.4977Z" fill="#CFCFCF"/>
</svg>
