<svg width="16" height="17" viewBox="0 0 16 17" fill="none" xmlns="http://www.w3.org/2000/svg">
<g clip-path="url(#clip0_16_3832)">
<path d="M5.1875 6.625C5.1875 8.17581 6.44919 9.4375 8 9.4375C9.55081 9.4375 10.8125 8.17581 10.8125 6.625C10.8125 5.07419 9.55081 3.8125 8 3.8125C6.44919 3.8125 5.1875 5.07419 5.1875 6.625ZM10.1875 6.625C10.1875 7.83119 9.20619 8.8125 8 8.8125C6.79381 8.8125 5.8125 7.83119 5.8125 6.625C5.8125 5.41881 6.79381 4.4375 8 4.4375C9.20619 4.4375 10.1875 5.41881 10.1875 6.625Z" fill="white"/>
<path d="M13.75 3.6875C13.9226 3.6875 14.0625 3.54759 14.0625 3.375C14.0625 3.20241 13.9226 3.0625 13.75 3.0625C13.5774 3.0625 13.4375 3.20241 13.4375 3.375C13.4375 3.54759 13.5774 3.6875 13.75 3.6875Z" fill="white"/>
<path d="M8 16.5C12.4345 16.5 16 12.9085 16 8.5C16 7.03222 15.5998 5.59737 14.8428 4.35056C14.7532 4.20306 14.5611 4.15609 14.4135 4.24563C14.2659 4.33522 14.219 4.52741 14.3086 4.67494C15.0062 5.82397 15.375 7.14666 15.375 8.5C15.375 10.6384 14.4759 12.6218 12.8914 14.0213C12.409 11.7461 10.3915 10.0625 8 10.0625C5.6085 10.0625 3.59078 11.7463 3.10891 14.0216C1.52419 12.6219 0.625 10.6384 0.625 8.5C0.625 4.43341 3.93341 1.125 8 1.125C9.65591 1.125 11.2197 1.65984 12.5224 2.67175C12.6587 2.77763 12.855 2.75294 12.9609 2.61666C13.0667 2.48038 13.0421 2.28403 12.9058 2.17816C11.4925 1.08028 9.79606 0.5 8 0.5C5.86137 0.5 3.85194 1.33175 2.34178 2.842C0.831656 4.35219 0 6.36156 0 8.5C0 12.9197 3.57684 16.5 8 16.5ZM8 10.6875C10.2093 10.6875 12.0432 12.3012 12.3351 14.469C11.0708 15.3894 9.57591 15.875 8 15.875C6.42425 15.875 4.9295 15.3893 3.66528 14.4689C3.95678 12.3012 5.79047 10.6875 8 10.6875Z" fill="white"/>
</g>
<defs>
<clipPath id="clip0_16_3832">
<rect width="16" height="16" fill="white" transform="translate(0 0.5)"/>
</clipPath>
</defs>
</svg>
