<svg width="25" height="25" viewBox="0 0 25 25" fill="none" xmlns="http://www.w3.org/2000/svg">
<path d="M19.0741 15.3676C19.0378 15.3313 18.9947 15.3026 18.9473 15.2829C18.8999 15.2633 18.8491 15.2532 18.7978 15.2532C18.7465 15.2532 18.6957 15.2633 18.6484 15.2829C18.601 15.3026 18.5579 15.3313 18.5216 15.3676L17.2208 16.6684L15.4731 14.9206C18.6727 11.4308 18.5831 5.98828 15.2033 2.60849C11.7309 -0.863922 6.08085 -0.863922 2.60844 2.60849C-0.863971 6.0809 -0.863922 11.7309 2.60844 15.2033C4.23206 16.8232 6.41749 17.7551 8.71047 17.8054C11.0035 17.8556 13.2276 17.0203 14.9206 15.4731L16.6684 17.2208L15.3677 18.5216C15.3314 18.5578 15.3026 18.6009 15.283 18.6483C15.2633 18.6957 15.2532 18.7465 15.2532 18.7978C15.2532 18.8491 15.2633 18.8999 15.283 18.9473C15.3026 18.9947 15.3314 19.0378 15.3677 19.0741L20.5288 24.2352C21.0203 24.7267 21.6869 25.0028 22.382 25.0028C23.0771 25.0028 23.7437 24.7267 24.2352 24.2351C24.7267 23.7436 25.0028 23.077 25.0028 22.3819C25.0028 21.6869 24.7267 21.0202 24.2352 20.5288L19.0741 15.3676ZM3.16098 14.6508C-0.00679339 11.4831 -0.00679339 6.32866 3.16098 3.16088C4.68584 1.63948 6.75192 0.78505 8.90595 0.78505C11.06 0.78505 13.1261 1.63948 14.6509 3.16088C17.8187 6.32866 17.8187 11.4831 14.6509 14.6508C11.4831 17.8186 6.3287 17.8186 3.16088 14.6508H3.16098ZM23.6827 23.6827C23.3374 24.0271 22.8696 24.2206 22.3819 24.2206C21.8942 24.2206 21.4264 24.0271 21.0811 23.6827L16.1963 18.7978L18.7978 16.1963L23.6827 21.0811C24.026 21.4269 24.2187 21.8945 24.2187 22.3819C24.2187 22.8692 24.026 23.3368 23.6827 23.6827ZM15.1129 8.65722C13.4059 6.58964 11.2015 5.45097 8.90585 5.45097C6.61025 5.45097 4.40585 6.58959 2.69877 8.65722C2.64098 8.72722 2.60937 8.81515 2.60937 8.90593C2.60937 8.9967 2.64098 9.08464 2.69877 9.15463C4.40585 11.2222 6.61025 12.3609 8.90585 12.3609C11.2015 12.3609 13.406 11.2221 15.1129 9.15463C15.1707 9.08464 15.2023 8.9967 15.2023 8.90593C15.2023 8.81515 15.1707 8.72722 15.1129 8.65722ZM8.90585 11.5796C6.94008 11.5796 5.03608 10.6328 3.51342 8.9059C5.03608 7.179 6.94008 6.23217 8.90585 6.23217C10.8716 6.23217 12.7757 7.179 14.2983 8.9059C12.7757 10.6328 10.8716 11.5796 8.90585 11.5796ZM8.90585 6.81591C8.49252 6.81591 8.08847 6.93848 7.7448 7.16811C7.40112 7.39775 7.13326 7.72414 6.97509 8.10601C6.81691 8.48788 6.77553 8.90807 6.85616 9.31346C6.9368 9.71885 7.13584 10.0912 7.42811 10.3835C7.72038 10.6758 8.09275 10.8748 8.49814 10.9554C8.90353 11.0361 9.32373 10.9947 9.7056 10.8365C10.0875 10.6783 10.4139 10.4105 10.6435 10.0668C10.8731 9.72314 10.9957 9.31909 10.9957 8.90576C10.995 8.35171 10.7746 7.82055 10.3829 7.42877C9.99111 7.037 9.45995 6.8166 8.9059 6.81591H8.90585ZM8.90585 10.2143C8.64704 10.2143 8.39403 10.1376 8.17884 9.99381C7.96364 9.85002 7.79591 9.64565 7.69687 9.40653C7.59783 9.16742 7.57191 8.9043 7.6224 8.65046C7.6729 8.39662 7.79753 8.16345 7.98054 7.98044C8.16355 7.79743 8.39672 7.6728 8.65056 7.62231C8.9044 7.57181 9.16752 7.59773 9.40663 7.69677C9.64574 7.79582 9.85012 7.96354 9.99391 8.17874C10.1377 8.39394 10.2144 8.64694 10.2144 8.90576C10.2141 9.25271 10.0761 9.58536 9.8308 9.83072C9.58548 10.0761 9.25286 10.2141 8.9059 10.2145L8.90585 10.2143Z" fill="#CFCFCF"/>
</svg>
