<svg width="20" height="20" viewBox="0 0 20 20" fill="none" xmlns="http://www.w3.org/2000/svg">
<g clip-path="url(#clip0_89_7178)">
<path d="M17.0833 18.3334H2.08333C0.934167 18.3334 0 17.3984 0 16.25V4.58335C0 4.35335 0.186667 4.16669 0.416667 4.16669C0.646667 4.16669 0.833333 4.35335 0.833333 4.58335V16.25C0.833333 16.9392 1.39417 17.5 2.08333 17.5H17.0833C17.3125 17.5 17.5 17.3134 17.5 17.0834V14.5834C17.5 14.3534 17.6867 14.1667 17.9167 14.1667C18.1467 14.1667 18.3333 14.3534 18.3333 14.5834V17.0834C18.3333 17.7725 17.7725 18.3334 17.0833 18.3334Z" fill="#D24545"/>
<path d="M17.9167 10C17.6867 10 17.5 9.81333 17.5 9.58333V7.08333C17.5 6.85333 17.3125 6.66667 17.0833 6.66667H2.08333C1.52083 6.66667 0.9975 6.4475 0.609167 6.04917C0.219167 5.66917 0 5.14583 0 4.58333C0 3.435 0.934167 2.5 2.08333 2.5H9.20833C9.43833 2.5 9.625 2.68667 9.625 2.91667C9.625 3.14667 9.43833 3.33333 9.20833 3.33333H2.08333C1.39417 3.33333 0.833333 3.89417 0.833333 4.58333C0.833333 4.91917 0.963333 5.23 1.19833 5.46C1.43667 5.70333 1.74833 5.83333 2.08333 5.83333H17.0833C17.7725 5.83333 18.3333 6.39417 18.3333 7.08333V9.58333C18.3333 9.81333 18.1467 10 17.9167 10Z" fill="#D24545"/>
<path d="M15.4176 6.66667C15.1876 6.66667 15.0009 6.48 15.0009 6.25V3.75C15.0009 3.52 14.8134 3.33333 14.5842 3.33333H13.0592C12.8292 3.33333 12.6426 3.14667 12.6426 2.91667C12.6426 2.68667 12.8292 2.5 13.0592 2.5H14.5842C15.2734 2.5 15.8342 3.06083 15.8342 3.75V6.25C15.8342 6.48 15.6476 6.66667 15.4176 6.66667Z" fill="#D24545"/>
<path d="M15.0008 6.66666C14.8575 6.66666 14.7183 6.59249 14.6408 6.45999L11.9367 1.82416L3.96499 6.60749C3.76999 6.72582 3.51249 6.66249 3.39333 6.46416C3.27499 6.26749 3.33916 6.01082 3.53666 5.89249L11.87 0.89249C11.965 0.83499 12.08 0.81999 12.1875 0.845824C12.2958 0.873324 12.3875 0.943324 12.4442 1.03916L15.3608 6.03916C15.4775 6.23832 15.41 6.49332 15.2108 6.60916C15.145 6.64832 15.0725 6.66666 15.0008 6.66666Z" fill="#D24545"/>
<path d="M19.5833 15H15.4167C13.8083 15 12.5 13.6917 12.5 12.0834C12.5 10.475 13.8083 9.16669 15.4167 9.16669H19.5833C19.8133 9.16669 20 9.35335 20 9.58335V14.5834C20 14.8134 19.8133 15 19.5833 15ZM15.4167 10C14.2675 10 13.3333 10.935 13.3333 12.0834C13.3333 13.2317 14.2675 14.1667 15.4167 14.1667H19.1667V10H15.4167Z" fill="#D24545"/>
<path d="M15.416 13.3333C14.7268 13.3333 14.166 12.7725 14.166 12.0833C14.166 11.3941 14.7268 10.8333 15.416 10.8333C16.1052 10.8333 16.666 11.3941 16.666 12.0833C16.666 12.7725 16.1052 13.3333 15.416 13.3333ZM15.416 11.6666C15.1868 11.6666 14.9993 11.8533 14.9993 12.0833C14.9993 12.3133 15.1868 12.5 15.416 12.5C15.6452 12.5 15.8327 12.3133 15.8327 12.0833C15.8327 11.8533 15.6452 11.6666 15.416 11.6666Z" fill="#D24545"/>
</g>
<defs>
<clipPath id="clip0_89_7178">
<rect width="20" height="20" fill="white"/>
</clipPath>
</defs>
</svg>
