<svg width="19" height="19" viewBox="0 0 19 19" fill="none" xmlns="http://www.w3.org/2000/svg">
<g clip-path="url(#clip0_12_9171)">
<path d="M9.27344 1.0625C7.60466 1.0625 5.97336 1.55735 4.58582 2.48448C3.19828 3.4116 2.11682 4.72936 1.47821 6.27111C0.839593 7.81286 0.672503 9.50936 0.998065 11.1461C1.32363 12.7828 2.12722 14.2862 3.30723 15.4662C4.48723 16.6462 5.99065 17.4498 7.62737 17.7754C9.26408 18.1009 10.9606 17.9338 12.5023 17.2952C14.0441 16.6566 15.3618 15.5752 16.289 14.1876C17.2161 12.8001 17.7109 11.1688 17.7109 9.5C17.7084 7.26301 16.8187 5.11837 15.2369 3.53658C13.6551 1.95479 11.5104 1.06503 9.27344 1.0625ZM9.27344 16.8125C8.11188 16.8125 6.89575 15.3151 6.29219 12.875H12.2547C11.6511 15.3151 10.435 16.8125 9.27344 16.8125ZM6.06382 11.75C5.84332 10.2581 5.84332 8.7419 6.06382 7.25H12.4831C12.5946 7.99478 12.6499 8.74691 12.6484 9.5C12.6499 10.2531 12.5946 11.0052 12.4831 11.75H6.06382ZM1.96094 9.5C1.96135 8.73587 2.08208 7.97657 2.31869 7.25H4.93432C4.71982 8.74233 4.71982 10.2577 4.93432 11.75H2.31869C2.08208 11.0234 1.96135 10.2641 1.96094 9.5ZM9.27344 2.1875C10.435 2.1875 11.6511 3.68488 12.2547 6.125H6.29219C6.89575 3.68488 8.11188 2.1875 9.27344 2.1875ZM13.6126 7.25H16.2282C16.7051 8.7121 16.7051 10.2879 16.2282 11.75H13.6126C13.7192 11.0047 13.773 10.2529 13.7734 9.5C13.773 8.74714 13.7192 7.99526 13.6126 7.25ZM15.754 6.125H13.4101C13.1597 4.90157 12.6689 3.74004 11.9661 2.70781C13.5963 3.35795 14.94 4.57012 15.754 6.125ZM6.58075 2.70781C5.87795 3.74004 5.38714 4.90157 5.13682 6.125H2.79288C3.60689 4.57012 4.95055 3.35795 6.58075 2.70781ZM2.79288 12.875H5.13682C5.38714 14.0984 5.87795 15.26 6.58075 16.2922C4.95055 15.642 3.60689 14.4299 2.79288 12.875ZM11.9661 16.2922C12.6689 15.26 13.1597 14.0984 13.4101 12.875H15.754C14.94 14.4299 13.5963 15.642 11.9661 16.2922Z" fill="#D24545"/>
</g>
<defs>
<clipPath id="clip0_12_9171">
<rect width="18" height="18" fill="white" transform="translate(0.273438 0.5)"/>
</clipPath>
</defs>
</svg>
